<svg id="favicon" xmlns="http://www.w3.org/2000/svg" width="55.207" height="55.208" viewBox="0 0 55.207 55.208">
    <path id="Path_325" data-name="Path 325" d="M70.287,41.763h-.92V28.882h-1.84v5.145A25.844,25.844,0,0,0,53.186,19.68h5.14V17.84H46.364v-.92a.92.92,0,0,0-.92-.92h-3.68a.92.92,0,0,0-.92.92v.92H28.882v1.84h5.14A25.844,25.844,0,0,0,19.68,34.026V28.882H17.84V41.763h-.92a.92.92,0,0,0-.92.92v3.68a.92.92,0,0,0,.92.92H20.6a.92.92,0,0,0,.92-.92v-3.68a.92.92,0,0,0-.92-.92h-.849A23.924,23.924,0,0,1,40.843,19.839V20.6a.92.92,0,0,0,.92.92h.159L28.107,43.108a.92.92,0,0,0,.124,1.147A14.69,14.69,0,0,1,32.562,54.71v3.615h-.92a.92.92,0,0,0-.92.92v7.361a.92.92,0,0,0,.92.92h.92v3.68H34.4v-3.68H52.8v3.68h1.84v-3.68h.92a.92.92,0,0,0,.92-.92V59.246a.92.92,0,0,0-.92-.92h-.92V54.71a14.69,14.69,0,0,1,4.331-10.456.92.92,0,0,0,.124-1.147L45.285,21.521h.159a.92.92,0,0,0,.92-.92v-.761A23.924,23.924,0,0,1,67.455,41.763h-.849a.92.92,0,0,0-.92.92v3.68a.92.92,0,0,0,.92.92h3.68a.92.92,0,0,0,.92-.92v-3.68A.92.92,0,0,0,70.287,41.763ZM19.68,45.444H17.84V43.6h1.84Zm23-27.6h1.84v1.84h-1.84Zm.92,23a2.76,2.76,0,1,1-2.76,2.76A2.76,2.76,0,0,1,43.6,40.843ZM54.645,65.687H32.562V60.166H54.645ZM52.8,54.71v3.615H34.4V54.71a16.508,16.508,0,0,0-4.356-11.22L42.683,23.745V39.1a4.6,4.6,0,1,0,1.84,0V23.745L57.161,43.49A16.508,16.508,0,0,0,52.8,54.71Zm16.562-9.267h-1.84V43.6h1.84Z" transform="translate(-16 -16)" fill="#006F9D"/>
</svg>
