<svg id="supermarket" xmlns="http://www.w3.org/2000/svg" width="55.528" height="54.042" viewBox="0 0 55.528 54.042">
  <g id="Group_253" data-name="Group 253" transform="translate(0 0)">
    <g id="Group_252" data-name="Group 252">
      <path id="Path_341" data-name="Path 341" d="M102.45,350.322a5.8,5.8,0,1,0,5.8,5.8A5.8,5.8,0,0,0,102.45,350.322Zm0,9.018a3.221,3.221,0,1,1,3.221-3.221A3.221,3.221,0,0,1,102.45,359.34Z" transform="translate(-84.737 -307.874)"/>
      <path id="Path_342" data-name="Path 342" d="M300.981,350.322a5.8,5.8,0,1,0,5.8,5.8A5.8,5.8,0,0,0,300.981,350.322Zm0,9.018a3.221,3.221,0,1,1,3.221-3.221A3.221,3.221,0,0,1,300.981,359.34Z" transform="translate(-258.791 -307.874)"/>
      <path id="Path_343" data-name="Path 343" d="M55.266,14.659a1.611,1.611,0,0,0-1.031-.515L12.3,13.564l-1.159-3.543A5.926,5.926,0,0,0,5.6,6.028H1.288a1.288,1.288,0,1,0,0,2.576H5.6A3.35,3.35,0,0,1,8.7,10.859l8.18,24.67-.644,1.481a6.183,6.183,0,0,0,.58,5.6,5.99,5.99,0,0,0,4.831,2.705H46.7a1.288,1.288,0,1,0,0-2.576H21.643A3.285,3.285,0,0,1,18.937,41.2a3.542,3.542,0,0,1-.322-3.092l.515-1.159,27.118-2.834A7.085,7.085,0,0,0,52.367,28.7l3.092-12.947A1.1,1.1,0,0,0,55.266,14.659ZM49.855,28.121a4.38,4.38,0,0,1-3.929,3.414L19.13,34.3,13.14,16.141l39.485.58Z" transform="translate(0 -6.028)"/>
    </g>
  </g>
</svg>
