<svg id="color-palette" xmlns="http://www.w3.org/2000/svg" width="55.523" height="69.217" viewBox="0 0 55.523 69.217">
  <path id="Path_378" data-name="Path 378" d="M104.513,28.016l-3.741-4.137a5.932,5.932,0,0,0-1.735-7.9l-5.4-3.733a5.944,5.944,0,0,0-3.735-5.74L77.97,1.752a5.888,5.888,0,0,0-4.438.02A5.916,5.916,0,0,0,69.307,0H56.458a5.941,5.941,0,0,0-5.935,5.935V56.858a12.353,12.353,0,0,0,20.471,9.317,1.03,1.03,0,0,0,.091-.072L94.224,45.279a1.016,1.016,0,0,0-1.36-1.511l-.953.858-3.1-3.426,4.863-7.031L98.1,39.058l-2.011,1.81a1.016,1.016,0,0,0,1.36,1.511l6.646-5.981a5.935,5.935,0,0,0,.422-8.382ZM99.5,20.165a3.876,3.876,0,0,1-.63,2.919l-2.76,3.991-6.283-4.345,3.326-8.343,4.727,3.269A3.875,3.875,0,0,1,99.5,20.165ZM89.84,36.143l-4.2-2.906,3.417-8.57,5.9,4.08Zm-6.271,9.068-2.12-1.466,3.417-8.57,3.817,2.64Zm1.564-16.194-2.946-1.175a1.016,1.016,0,0,0-.753,1.888L84.38,30.9l-3.492,8.757L75.242,37.41V27.261l2.151.858a1.016,1.016,0,0,0,.753-1.888l-2.9-1.158V14.923l13.383,5.336ZM73.209,22.673H61.7a1.016,1.016,0,1,0,0,2.033H73.209v9.428H52.556V24.705h4.808a1.016,1.016,0,0,0,0-2.033H52.556V13.245H73.209v9.428ZM52.556,36.166H73.209v9.428H52.556ZM75.242,39.6l4.894,1.951L75.242,53.823Zm6.334,12.068L82.7,52.913l-5.268,4.741Zm-4.392,2.777,3.493-8.762,1.736,1.2Zm.034-50.8L89.153,8.4a3.906,3.906,0,0,1,2.424,4.141c0,.008,0,.016,0,.024a3.922,3.922,0,0,1-.241.9l-1.955,4.9L75.242,12.735v-6.8a5.9,5.9,0,0,0-.521-2.427,3.871,3.871,0,0,1,2.5.132ZM56.458,2.033H69.307a3.906,3.906,0,0,1,3.9,3.9v5.278H52.556V5.935A3.906,3.906,0,0,1,56.458,2.033Zm-3.9,54.825V47.626H73.209v9.232a10.327,10.327,0,1,1-20.653,0ZM90.4,45.985l-6.186,5.567-1.45-1.6,4.863-7.031Zm13.608-13.793a3.874,3.874,0,0,1-1.278,2.7L99.608,37.7l-4.744-5.247L99.6,25.609l3.409,3.77a3.876,3.876,0,0,1,1,2.813Z" transform="translate(-50.523 0)"/>
  <path id="Path_379" data-name="Path 379" d="M108.931,383.857a4.874,4.874,0,1,0,4.874,4.874A4.88,4.88,0,0,0,108.931,383.857Zm0,7.716a2.841,2.841,0,1,1,2.841-2.841A2.844,2.844,0,0,1,108.931,391.573Z" transform="translate(-96.802 -331.836)"/>
</svg>
