<svg xmlns="http://www.w3.org/2000/svg" width="55.319" height="66.612" viewBox="0 0 55.319 66.612">
  <g id="Group_365" data-name="Group 365" transform="translate(0 0)">
    <path id="Path_348" data-name="Path 348" d="M233.331,274.346a.976.976,0,0,0-.976.976,1.821,1.821,0,1,1-3.642,0,.976.976,0,0,0-1.952,0,3.773,3.773,0,1,0,7.545,0A.976.976,0,0,0,233.331,274.346Z" transform="translate(-202.906 -238.653)"/>
    <path id="Path_349" data-name="Path 349" d="M238.29,232.163a.975.975,0,0,0,1.316-.414.623.623,0,0,1,1.1,0,.976.976,0,1,0,1.73-.9,2.574,2.574,0,0,0-4.564,0A.976.976,0,0,0,238.29,232.163Z" transform="translate(-212.478 -199.61)"/>
    <path id="Path_351" data-name="Path 351" d="M95.748,47.119a6.118,6.118,0,0,0-2.862-2.346,3.909,3.909,0,0,1-2.211-1.9,2.921,2.921,0,0,1,.115-2.444,4.8,4.8,0,0,0,.076-3.849,5.062,5.062,0,0,0-2.8-2.711,4.1,4.1,0,0,1-1.44-.981,4.9,4.9,0,0,0,.739-7.383,3.588,3.588,0,0,0,.528-1.948.976.976,0,0,0,.132-1.894q-.925-.289-1.857-.545v-4.6a.976.976,0,0,0-1.952,0v4.1a56.5,56.5,0,0,0-26.325,0V11.957a5.676,5.676,0,0,1,5.667-5.671h14.99a5.676,5.676,0,0,1,5.667,5.671.976.976,0,0,0,1.952,0,7.629,7.629,0,0,0-7.619-7.623H74.168V3.142a3.142,3.142,0,1,0-6.284,0V4.334H63.555a7.629,7.629,0,0,0-7.619,7.623v9.161q-.9.249-1.8.527a.976.976,0,0,0,.1,1.888,3.579,3.579,0,0,0,.518,1.957,4.9,4.9,0,0,0,.743,7.4,4.122,4.122,0,0,1-1.436.975,5.062,5.062,0,0,0-2.8,2.711,4.8,4.8,0,0,0,.076,3.849,2.921,2.921,0,0,1,.115,2.444,3.909,3.909,0,0,1-2.211,1.9,6.119,6.119,0,0,0-2.862,2.346,3.609,3.609,0,0,0-2.97,3.547v2.746a.976.976,0,0,0,1.952,0V50.666A1.653,1.653,0,0,1,47,49.013h5.147v3.7a7.78,7.78,0,0,0-4.885,7.192v5.727a.976.976,0,0,0,1.952,0V59.909a5.821,5.821,0,0,1,2.934-5.032V65.636a.976.976,0,0,0,1.952,0V49.013h1.952V65.636a.976.976,0,0,0,1.952,0V53.225l8.332-2.039a4.856,4.856,0,0,0,3.712,3.536V65.636a.976.976,0,0,0,1.952,0V54.722a4.857,4.857,0,0,0,3.713-3.538l8.4,2.04V65.636a.976.976,0,0,0,1.952,0V49.013h1.952V65.636a.976.976,0,0,0,1.952,0V54.857a5.818,5.818,0,0,1,2.968,5.052v5.727a.976.976,0,0,0,1.952,0V59.909A7.778,7.778,0,0,0,89.97,52.7v-3.69h5.147a1.653,1.653,0,0,1,1.651,1.652v14.97a.976.976,0,0,0,1.952,0V50.666a3.608,3.608,0,0,0-2.97-3.547ZM69.836,3.142a1.19,1.19,0,1,1,2.381,0V4.334H69.836ZM84.76,22.763q.519.134,1.037.279a1.527,1.527,0,0,1-.037,1.335,4.858,4.858,0,0,0-1-.316Zm-.005,3.318a2.961,2.961,0,0,1,.04,5.586C84.76,30.338,84.754,28.221,84.755,26.081ZM56.324,23.036q.524-.146,1.05-.282c0,.422.009.856.011,1.294a4.864,4.864,0,0,0-1.031.317,1.525,1.525,0,0,1-.03-1.33Zm-.978,5.877a2.962,2.962,0,0,1,2.043-2.852c0,2.182-.03,4.279-.076,5.605a2.977,2.977,0,0,1-1.968-2.753ZM66.379,49.166,58,51.216v-2.2h3.012a.976.976,0,1,0,0-1.952H49.107c.3-.191.64-.362,1.006-.548a5.691,5.691,0,0,0,3.13-2.889,4.8,4.8,0,0,0-.076-3.849,2.921,2.921,0,0,1-.115-2.444,3.165,3.165,0,0,1,1.875-1.717,5.573,5.573,0,0,0,2.279-1.757c0,.009,0,.018,0,.026,0,3.376,2.731,7.3,8.114,11.648a9.009,9.009,0,0,0,1.016.714,8.144,8.144,0,0,1,.042,2.918Zm4.645,3.7a2.892,2.892,0,0,1-2.884-2.736,8.361,8.361,0,0,0,.279-2.958,9.042,9.042,0,0,0,2.612.388h.041a9.035,9.035,0,0,0,2.555-.372,8.347,8.347,0,0,0,.28,2.941A2.893,2.893,0,0,1,71.024,52.869Zm.044-7.257h-.033a7.127,7.127,0,0,1-4.486-1.593c-4.835-3.91-7.391-7.414-7.391-10.133,0-.313.012-.608.035-.869.135-1.372.178-6.867.125-10.727A54.537,54.537,0,0,1,82.81,22.3l.1,10.7c.024.29.036.588.036.885,0,2.72-2.557,6.225-7.4,10.138A7.116,7.116,0,0,1,71.068,45.612ZM81.1,47.062a.976.976,0,1,0,0,1.952h3.012v2.2l-8.447-2.051a8.166,8.166,0,0,1,.034-2.88,8.993,8.993,0,0,0,1.072-.746c5.388-4.356,8.119-8.277,8.119-11.654,0-.018,0-.036,0-.054a5.547,5.547,0,0,0,2.3,1.784,3.165,3.165,0,0,1,1.875,1.717,2.921,2.921,0,0,1-.115,2.444,4.8,4.8,0,0,0-.076,3.849,5.691,5.691,0,0,0,3.13,2.889c.366.185.7.357,1.006.548H81.1Z" transform="translate(-43.4)"/>
  </g>
</svg>
