<svg id="dress_1_" data-name="dress (1)" xmlns="http://www.w3.org/2000/svg" width="44.555" height="60.034" viewBox="0 0 44.555 60.034">
  <path id="Path_331" data-name="Path 331" d="M241.173,326a1.173,1.173,0,1,0,1.173,1.173A1.173,1.173,0,0,0,241.173,326Zm0,0" transform="translate(-211.859 -287.775)" fill="#2a2a2a"/>
  <path id="Path_332" data-name="Path 332" d="M121.173,326a1.173,1.173,0,1,0,1.173,1.173A1.173,1.173,0,0,0,121.173,326Zm0,0" transform="translate(-105.93 -287.775)" fill="#2a2a2a"/>
  <path id="Path_333" data-name="Path 333" d="M11.377,31.143c-.092.123-.18.256-.268.39a69.042,69.042,0,0,0-3.935,7.035A95.6,95.6,0,0,0,.031,58.593a1.172,1.172,0,0,0,1.141,1.44H43.384a1.172,1.172,0,0,0,.92-.445,1.27,1.27,0,0,0,.178-1.18,92.855,92.855,0,0,0-6.116-17.839,78.2,78.2,0,0,0-5.156-9.329,1.291,1.291,0,0,1-.043-.671,1.167,1.167,0,0,0,.136-.493,14.665,14.665,0,0,1,1.149-2.184,18.486,18.486,0,0,0,3.028-8.434A6.036,6.036,0,0,0,43.3,14.577a5.867,5.867,0,0,0-5.783-6.839H31.659A3.522,3.522,0,0,1,28.141,4.22V1.172A1.172,1.172,0,0,0,26.968,0h-9.38a1.173,1.173,0,0,0-1.173,1.173V4.22A3.521,3.521,0,0,1,12.9,7.738H7.286a6.049,6.049,0,0,0-6.034,4.886,5.868,5.868,0,0,0,5.783,6.839h.044A18.546,18.546,0,0,0,10.1,27.881a14.772,14.772,0,0,1,1.153,2.2,1.166,1.166,0,0,0,.134.487,1.327,1.327,0,0,1-.012.576ZM41.894,57.688H2.665A93.274,93.274,0,0,1,9.279,39.6,58.922,58.922,0,0,1,13.3,32.487a1.169,1.169,0,0,0,.239-.4,3.467,3.467,0,0,0,.208-.9h2.366l-.8,3.409a1.173,1.173,0,0,0,2.283.535l.924-3.944h2.588V39.4a1.173,1.173,0,1,0,2.345,0V31.189h2.588l.924,3.944a1.173,1.173,0,0,0,2.283-.535l-.8-3.409h2.367a3.485,3.485,0,0,0,.223.937A84.385,84.385,0,0,1,41.894,57.688ZM40.99,14.2a3.662,3.662,0,0,1-3.469,2.909V15.946A3.521,3.521,0,0,0,34,12.428H32.831V10.083h4.69A3.52,3.52,0,0,1,40.99,14.2ZM18.761,4.22V2.344H25.8V4.22a5.873,5.873,0,0,0,4.69,5.744v2.692a12.807,12.807,0,0,0-8.208,5.365,12.8,12.8,0,0,0-8.208-5.365V9.965a5.872,5.872,0,0,0,4.69-5.744ZM3.567,13a3.688,3.688,0,0,1,3.719-2.918h4.439v2.345H10.553a3.522,3.522,0,0,0-3.518,3.518v1.173A3.519,3.519,0,0,1,3.567,13Zm5.813,5.29V15.946a1.174,1.174,0,0,1,1.173-1.173h1.173c4.116,0,8.175,2.651,9.447,6.253a1.173,1.173,0,0,0,2.211,0c1.277-3.614,5.344-6.253,9.447-6.253H34a1.174,1.174,0,0,1,1.173,1.173v2.345A15.6,15.6,0,0,1,32.432,26.7a20.413,20.413,0,0,0-1.161,2.144H13.285a20.635,20.635,0,0,0-1.163-2.154,15.641,15.641,0,0,1-2.742-8.4Zm0,0" transform="translate(0 0.001)" fill="#2a2a2a"/>
</svg>
