<svg id="graphic-design" xmlns="http://www.w3.org/2000/svg" width="53.367" height="54.287" viewBox="0 0 53.367 54.287">
  <path id="Path_310" data-name="Path 310" d="M142.722,56,128,79a15.707,15.707,0,0,1,4.6,11.107v10.056h20.243V90.11A15.707,15.707,0,0,1,157.444,79Zm0,26.684A3.68,3.68,0,1,1,146.4,79,3.68,3.68,0,0,1,142.722,82.684Z" transform="translate(-116.038 -52.32)" fill="#ccc"/>
  <path id="Path_311" data-name="Path 311" d="M168,418.121V408h20.243v10.121" transform="translate(-151.438 -363.834)" fill="#fdb62f"/>
  <path id="Path_312" data-name="Path 312" d="M128,32h29.444v1.84H128Z" transform="translate(-116.038 -31.08)" fill="#f80"/>
  <path id="Path_313" data-name="Path 313" d="M32,128h1.84v13.8H32Z" transform="translate(-31.08 -116.038)" fill="#f80"/>
  <path id="Path_314" data-name="Path 314" d="M464,128h1.84v13.8H464Z" transform="translate(-413.393 -116.038)" fill="#f80"/>
  <path id="Path_315" data-name="Path 315" d="M83.527,57.763h-1.84a23.923,23.923,0,1,0-47.846,0H32a25.763,25.763,0,1,1,51.527,0Z" transform="translate(-31.08 -31.08)" fill="#ff421d"/>
  <path id="Path_316" data-name="Path 316" d="M226.758,226.732v-1.724a3.68,3.68,0,1,0,1.84,0v1.724Z" transform="translate(-200.995 -201.889)" fill="none"/>
  <path id="Path_317" data-name="Path 317" d="M248,40V61.279a3.71,3.71,0,0,1,1.84,0V40Z" transform="translate(-222.237 -38.16)" fill="#6cbbc7"/>
  <g id="Group_250" data-name="Group 250" transform="translate(0 0)">
    <path id="Path_318" data-name="Path 318" d="M240,24h3.68v3.68H240Z" transform="translate(-215.157 -24)" fill="#fdb62f"/>
    <path id="Path_319" data-name="Path 319" d="M24,248h3.68v3.68H24Z" transform="translate(-24 -222.237)" fill="#fdb62f"/>
    <path id="Path_320" data-name="Path 320" d="M456,248h3.68v3.68H456Z" transform="translate(-406.314 -222.237)" fill="#fdb62f"/>
  </g>
  <path id="Path_321" data-name="Path 321" d="M257.276,203.424a45.821,45.821,0,0,1-12.1,27.21h11.366V220.578a15.707,15.707,0,0,1,4.6-11.107Z" transform="translate(-219.741 -182.788)" fill="#b3b3b3"/>
  <path id="Path_322" data-name="Path 322" d="M180.828,418.121H199.6V408h-8.28A46.26,46.26,0,0,1,180.828,418.121Z" transform="translate(-162.79 -363.834)" fill="#f29706"/>
  <path id="Path_323" data-name="Path 323" d="M152,392h23.923v7.361H152Z" transform="translate(-137.278 -349.674)" fill="#0071bc"/>
  <path id="Path_324" data-name="Path 324" d="M235.644,392a46.235,46.235,0,0,1-6.211,7.361H244.45V392Z" transform="translate(-205.805 -349.674)" fill="#005a97"/>
</svg>
