<svg id="retouch_2_" data-name="retouch (2)" xmlns="http://www.w3.org/2000/svg" width="55.873" height="56.755" viewBox="0 0 55.873 56.755">
  <path id="Path_334" data-name="Path 334" d="M27.6,29.723a1.118,1.118,0,1,1-1.118-1.118A1.118,1.118,0,0,1,27.6,29.723ZM59.474,44.992a1.117,1.117,0,0,1-1.58,1.58L52.63,41.307A19.774,19.774,0,0,1,49.159,46a19.433,19.433,0,0,1-12.484,5.678v3.959a1.117,1.117,0,0,1-1.117,1.117H23.268a1.117,1.117,0,0,1-1.117-1.117V51.679A19.551,19.551,0,0,1,5.114,25.5L9.248,14.12A21.452,21.452,0,0,1,45.07,6.792a1.844,1.844,0,0,0,.691-1.24l.413-3.6A1.676,1.676,0,0,1,49.4,1.522L50.73,4.9a1.845,1.845,0,0,0,1.509,1.158l3.6.413a1.676,1.676,0,0,1,.424,3.224l-3.375,1.332a1.845,1.845,0,0,0-1.158,1.509l-.413,3.6a1.66,1.66,0,0,1-.606,1.114l3,8.242a19.621,19.621,0,0,1,1.2,7.032l4.565,4.565a1.117,1.117,0,0,1-1.58,1.58L44.767,25.544l-2.37,2.37ZM43.187,23.964l-4.578-4.578-.406.1a2.453,2.453,0,0,0-1.788,1.788l-.131.524,4.534,4.534ZM40.181,16.69l-2.521-.63a4.684,4.684,0,0,1-3.414-3.414l-.63-2.521-.63,2.521a4.684,4.684,0,0,1-3.414,3.414l-2.521.63,2.521.63a4.684,4.684,0,0,1,3.414,3.414l.63,2.521.63-2.521A4.684,4.684,0,0,1,37.66,17.32Zm3.945-7.039,1.385.159a4.076,4.076,0,0,1,3.333,2.558l.512,1.3.159-1.385a4.076,4.076,0,0,1,2.558-3.333l1.3-.512-1.385-.159a4.076,4.076,0,0,1-3.333-2.558l-.512-1.3-.159,1.385a4.075,4.075,0,0,1-2.558,3.333ZM22.151,48.858a29.831,29.831,0,0,1-8.821-28.84,14.961,14.961,0,0,1-.3-8.619,19.066,19.066,0,0,0-1.686,3.485L7.214,26.258a17.392,17.392,0,0,0,4.033,18.163,17.206,17.206,0,0,0,10.9,5.018Zm12.29,1.661a10.357,10.357,0,0,1-10.055,0v4H34.441ZM41.98,37.464,30.684,32.7a1.117,1.117,0,0,1,.867-2.059L43.5,35.682A9.251,9.251,0,0,0,45.2,33.877l-9.548-9.548-.409,1.637a1.676,1.676,0,0,1-3.252,0l-1.172-4.689a2.454,2.454,0,0,0-1.788-1.788L24.34,18.315a1.676,1.676,0,0,1,0-3.252l4.689-1.172A2.453,2.453,0,0,0,30.817,12.1L31.99,7.414a1.676,1.676,0,0,1,3.252,0L36.414,12.1A2.454,2.454,0,0,0,38.2,13.892l4.689,1.172a1.676,1.676,0,0,1,0,3.252l-1.755.439,4.42,4.42h0l6.969,6.969a17.178,17.178,0,0,0-.915-3.887l-4.846-13.07a1.845,1.845,0,0,0-1.509-1.158l-3.6-.413a1.676,1.676,0,0,1-.424-3.224l1.649-.651A19.177,19.177,0,0,0,22.61,3.487a12.648,12.648,0,0,0-.305,23.26,1.117,1.117,0,0,1-.9,2.043,15.051,15.051,0,0,1-6.413-5.43,27.586,27.586,0,0,0,9.029,24.175,8.126,8.126,0,0,0,10.793,0,27.712,27.712,0,0,0,7.17-10.072Zm8.974,2.168L46.8,35.475a10.444,10.444,0,0,1-2.6,2.467A29.949,29.949,0,0,1,36.675,48.86v.579a17.258,17.258,0,0,0,14.279-9.807Z" transform="translate(-3.947 0)"/>
</svg>
