<svg xmlns="http://www.w3.org/2000/svg" xmlns:xlink="http://www.w3.org/1999/xlink" width="100" height="100" viewBox="0 0 100 100">
  <defs>
    <linearGradient id="linear-gradient" x1="0.723" y1="0.109" x2="0.232" y2="0.901" gradientUnits="objectBoundingBox">
      <stop offset="0" stop-color="#00aeef"/>
      <stop offset="1" stop-color="#82ddff"/>
    </linearGradient>
  </defs>
  <g id="Group_370" data-name="Group 370" transform="translate(-249 -4976)">
    <g id="Group_369" data-name="Group 369">
      <circle id="Ellipse_28" data-name="Ellipse 28" cx="50" cy="50" r="50" transform="translate(249 4976)" fill="url(#linear-gradient)"/>
    </g>
    <g id="hands-and-gestures_1_" data-name="hands-and-gestures (1)" transform="translate(273.641 4997)">
      <path id="Path_292" data-name="Path 292" d="M190.13,161a.9.9,0,0,0-.322-.011,2.137,2.137,0,0,1-1.89-2.119.94.94,0,1,0-1.88,0,4.021,4.021,0,0,0,2.956,3.871v.94a.94.94,0,1,0,1.88,0V162.8a4.013,4.013,0,0,0-.822-7.942,2.134,2.134,0,1,1,2.134-2.134.94.94,0,1,0,1.88,0,4.021,4.021,0,0,0-3.191-3.929v-.855a.94.94,0,0,0-1.88,0v.913a4.013,4.013,0,0,0,1.057,7.885A2.133,2.133,0,0,1,190.13,161Zm0,0" transform="translate(-163.864 -129.73)" fill="#fff"/>
      <path id="Path_293" data-name="Path 293" d="M104.195,120.121a13.629,13.629,0,1,0,13.629-13.629A13.629,13.629,0,0,0,104.195,120.121Zm13.629-11.749a11.749,11.749,0,1,1-11.749,11.749A11.749,11.749,0,0,1,117.824,108.372Zm0,0" transform="translate(-91.636 -93.981)" fill="#fff"/>
      <path id="Path_294" data-name="Path 294" d="M44.45,330.1l-7.362,3.479a6,6,0,0,0-5.112-3.155l-6.8-.187a7.178,7.178,0,0,1-3.089-.8l-.692-.358a12.2,12.2,0,0,0-11.3.012l.043-1.567a.94.94,0,0,0-.914-.966l-7.453-.205a.939.939,0,0,0-.965.914L.36,343.625a.94.94,0,0,0,.914.966l7.453.205h.026a.94.94,0,0,0,.94-.914l.022-.782,1.936-1.037a3.321,3.321,0,0,1,2.479-.271l11.562,3.245.061.015a12.373,12.373,0,0,0,2.541.262,12.539,12.539,0,0,0,5.239-1.143.878.878,0,0,0,.117-.064l16.764-10.843a.94.94,0,0,0,.308-1.252,4.748,4.748,0,0,0-6.27-1.91ZM2.265,342.737l.4-14.476,5.574.153-.4,14.477Zm30.419-.246a10.656,10.656,0,0,1-6.517.727l-11.531-3.237a5.2,5.2,0,0,0-3.874.424l-.989.53.265-9.625a10.331,10.331,0,0,1,10.5-.56l.692.358a9.077,9.077,0,0,0,3.9,1.008l6.8.187a4.122,4.122,0,0,1,3.918,3.285l-10.124-.279a.94.94,0,0,0-.052,1.879l11.173.307h.026a.94.94,0,0,0,.939-.914,5.965,5.965,0,0,0-.091-1.219l7.551-3.568.022-.011a2.872,2.872,0,0,1,3.247.455Zm0,0" transform="translate(0 -288.015)" fill="#fff"/>
      <path id="Path_295" data-name="Path 295" d="M214.083,9.869V.94a.94.94,0,0,0-1.88,0V9.869a.94.94,0,0,0,1.88,0Zm0,0" transform="translate(-186.955)" fill="#fff"/>
      <path id="Path_296" data-name="Path 296" d="M274.083,45.169V40.94a.94.94,0,1,0-1.88,0v4.229a.94.94,0,1,0,1.88,0Zm0,0" transform="translate(-239.906 -35.301)" fill="#fff"/>
      <path id="Path_297" data-name="Path 297" d="M154.083,45.169V40.94a.94.94,0,0,0-1.88,0v4.229a.94.94,0,0,0,1.88,0Zm0,0" transform="translate(-134.004 -35.301)" fill="#fff"/>
    </g>
  </g>
</svg>
