<svg xmlns="http://www.w3.org/2000/svg" xmlns:xlink="http://www.w3.org/1999/xlink" width="100" height="100" viewBox="0 0 100 100">
  <defs>
    <linearGradient id="linear-gradient" x1="0.723" y1="0.109" x2="0.232" y2="0.901" gradientUnits="objectBoundingBox">
      <stop offset="0" stop-color="#00aeef"/>
      <stop offset="1" stop-color="#82ddff"/>
    </linearGradient>
  </defs>
  <g id="Group_371" data-name="Group 371" transform="translate(-951 -4985)">
    <circle id="Ellipse_28" data-name="Ellipse 28" cx="50" cy="50" r="50" transform="translate(951 4985)" fill="url(#linear-gradient)"/>
    <g id="technology" transform="translate(958.244 5008)">
      <g id="Group_208" data-name="Group 208" transform="translate(17.756)">
        <path id="Path_298" data-name="Path 298" d="M62.693,22.671h-.136V19.345a19.345,19.345,0,0,0-38.69,0v3.326h-.814a5.528,5.528,0,0,0-5.294,5.7v8.485a5.362,5.362,0,0,0,5.224,5.5h5.093A1.29,1.29,0,0,0,29.3,41.007q0-.038-.006-.077V24.3c0-.814-.475-1.629-1.222-1.629H26.582V19.345a16.63,16.63,0,1,1,33.26,0v3.326H58.349c-.747,0-1.222.814-1.222,1.629V40.93a1.29,1.29,0,0,0,1.145,1.42l.077.006H59.91l-.136.2a10.724,10.724,0,0,1-8.621,4.276,6.72,6.72,0,0,0-13.3,1.29,6.788,6.788,0,0,0,6.788,6.72,6.991,6.991,0,0,0,4.887-2.1,5.974,5.974,0,0,0,1.629-3.258A13.44,13.44,0,0,0,61.947,44.12l1.29-1.9c2.919-.2,4.751-2.036,4.751-4.684V29.052C67.988,26.133,65.816,22.671,62.693,22.671ZM26.582,39.641h-3.53a2.647,2.647,0,0,1-2.582-2.711c0-.024,0-.048,0-.072V28.373a2.814,2.814,0,0,1,2.579-2.987h3.53Zm20.974,11.2a4.005,4.005,0,0,1-2.919,1.29,4.141,4.141,0,0,1-4.073-4,4,4,0,1,1,8.01,0v0A3.6,3.6,0,0,1,47.557,50.841Zm17.716-13.3c0,1.833-1.765,2.1-2.579,2.1H59.843V25.386h2.851c1.493,0,2.579,2.1,2.579,3.665Z" transform="translate(-17.756)" fill="#fff"/>
      </g>
    </g>
  </g>
</svg>
