<svg xmlns="http://www.w3.org/2000/svg" xmlns:xlink="http://www.w3.org/1999/xlink" width="100" height="100" viewBox="0 0 100 100">
  <defs>
    <linearGradient id="linear-gradient" x1="0.723" y1="0.109" x2="0.232" y2="0.901" gradientUnits="objectBoundingBox">
      <stop offset="0" stop-color="#00aeef"/>
      <stop offset="1" stop-color="#82ddff"/>
    </linearGradient>
  </defs>
  <g id="Group_372" data-name="Group 372" transform="translate(-1365 -4985)">
    <circle id="Ellipse_29" data-name="Ellipse 29" cx="50" cy="50" r="50" transform="translate(1365 4985)" fill="url(#linear-gradient)"/>
    <g id="business-and-finance" transform="translate(1388 5008)">
      <g id="Group_210" data-name="Group 210" transform="translate(22)">
        <g id="Group_209" data-name="Group 209">
          <path id="Path_299" data-name="Path 299" d="M197.5,0A5.5,5.5,0,1,0,203,5.5,5.5,5.5,0,0,0,197.5,0Zm0,9.167A3.667,3.667,0,1,1,201.167,5.5,3.667,3.667,0,0,1,197.5,9.167Z" transform="translate(-192)" fill="#fff"/>
        </g>
      </g>
      <g id="Group_212" data-name="Group 212" transform="translate(19.25 11.917)">
        <g id="Group_211" data-name="Group 211">
          <path id="Path_300" data-name="Path 300" d="M179.917,104H179.7l-.193.1a7.307,7.307,0,0,1-6.514,0l-.193-.1h-.216A4.589,4.589,0,0,0,168,108.583v5.5a2.75,2.75,0,0,0,2.75,2.75h11a2.75,2.75,0,0,0,2.75-2.75v-5.5A4.589,4.589,0,0,0,179.917,104Zm2.75,10.083a.917.917,0,0,1-.917.917h-11a.917.917,0,0,1-.917-.917v-5.5a2.75,2.75,0,0,1,2.555-2.743,9.174,9.174,0,0,0,7.724,0,2.75,2.75,0,0,1,2.555,2.743Z" transform="translate(-168 -104)" fill="#fff"/>
        </g>
      </g>
      <g id="Group_214" data-name="Group 214" transform="translate(41.25 30.25)">
        <g id="Group_213" data-name="Group 213">
          <path id="Path_301" data-name="Path 301" d="M365.5,264a5.5,5.5,0,1,0,5.5,5.5A5.5,5.5,0,0,0,365.5,264Zm0,9.167a3.667,3.667,0,1,1,3.667-3.667A3.667,3.667,0,0,1,365.5,273.167Z" transform="translate(-360 -264)" fill="#fff"/>
        </g>
      </g>
      <g id="Group_216" data-name="Group 216" transform="translate(38.5 42.167)">
        <g id="Group_215" data-name="Group 215">
          <path id="Path_302" data-name="Path 302" d="M347.917,368H347.7l-.193.092a7.308,7.308,0,0,1-6.514,0L340.8,368h-.216A4.589,4.589,0,0,0,336,372.583v5.5a2.75,2.75,0,0,0,2.75,2.75h11a2.75,2.75,0,0,0,2.75-2.75v-5.5A4.589,4.589,0,0,0,347.917,368Zm2.75,10.083a.917.917,0,0,1-.917.917h-11a.917.917,0,0,1-.917-.917v-5.5a2.75,2.75,0,0,1,2.555-2.743,9.174,9.174,0,0,0,7.724,0,2.75,2.75,0,0,1,2.555,2.743Z" transform="translate(-336 -368)" fill="#fff"/>
        </g>
      </g>
      <g id="Group_218" data-name="Group 218" transform="translate(2.75 30.25)">
        <g id="Group_217" data-name="Group 217">
          <path id="Path_303" data-name="Path 303" d="M29.5,264a5.5,5.5,0,1,0,5.5,5.5A5.5,5.5,0,0,0,29.5,264Zm0,9.167a3.667,3.667,0,1,1,3.667-3.667A3.667,3.667,0,0,1,29.5,273.167Z" transform="translate(-24 -264)" fill="#fff"/>
        </g>
      </g>
      <g id="Group_220" data-name="Group 220" transform="translate(0 42.167)">
        <g id="Group_219" data-name="Group 219">
          <path id="Path_304" data-name="Path 304" d="M11.917,368H11.7l-.193.092a7.308,7.308,0,0,1-6.514,0L4.8,368H4.583A4.589,4.589,0,0,0,0,372.583v5.5a2.75,2.75,0,0,0,2.75,2.75h11a2.75,2.75,0,0,0,2.75-2.75v-5.5A4.589,4.589,0,0,0,11.917,368Zm2.75,10.083a.917.917,0,0,1-.917.917h-11a.917.917,0,0,1-.917-.917v-5.5a2.75,2.75,0,0,1,2.555-2.743,9.174,9.174,0,0,0,7.724,0,2.75,2.75,0,0,1,2.555,2.743Z" transform="translate(0 -368)" fill="#fff"/>
        </g>
      </g>
      <g id="Group_222" data-name="Group 222" transform="translate(18.333 44.916)">
        <g id="Group_221" data-name="Group 221">
          <path id="Path_305" data-name="Path 305" d="M178.259,393.632v0a.917.917,0,0,0-1.2-.484h0a20.334,20.334,0,0,1-13.074.9l.858-.252a.917.917,0,1,0-.515-1.76l-3.667,1.075c-.014,0-.024.016-.037.02a.909.909,0,0,0-.236.131.8.8,0,0,0-.092.058.888.888,0,0,0-.225.312.918.918,0,0,0-.07.379,2.824,2.824,0,0,0,.092.367c.005.013,0,.027.01.04l1.833,3.508a.917.917,0,1,0,1.626-.849l-.746-1.426a22.065,22.065,0,0,0,14.959-.814A.917.917,0,0,0,178.259,393.632Z" transform="translate(-159.998 -391.995)" fill="#fff"/>
        </g>
      </g>
      <g id="Group_224" data-name="Group 224" transform="translate(34.833 7.175)">
        <g id="Group_223" data-name="Group 223">
          <path id="Path_306" data-name="Path 306" d="M321.146,79.548a.917.917,0,0,0-1.3,0l-1.3,1.3A21.967,21.967,0,0,0,305.274,62.7a.917.917,0,0,0-.719,1.687,20.136,20.136,0,0,1,12.125,16.2l-1.034-1.034a.917.917,0,0,0-1.3,1.3l2.75,2.75a.917.917,0,0,0,1.3,0l0,0,2.75-2.75A.917.917,0,0,0,321.146,79.548Z" transform="translate(-303.998 -62.622)" fill="#fff"/>
        </g>
      </g>
      <g id="Group_226" data-name="Group 226" transform="translate(5.5 5.515)">
        <g id="Group_225" data-name="Group 225">
          <path id="Path_307" data-name="Path 307" d="M62.64,50.556a.853.853,0,0,0-.024-.159c0-.008-.01-.014-.014-.023s0-.016,0-.023a.879.879,0,0,0-.086-.126.926.926,0,0,0-.1-.151.86.86,0,0,0-.179-.122.806.806,0,0,0-.1-.074L58.464,48.2A.917.917,0,0,0,57.7,49.87l1.9.868A21.966,21.966,0,0,0,48,70.119a.917.917,0,0,0,1.833,0,20.135,20.135,0,0,1,9.921-17.365l-.663,1.385a.917.917,0,0,0,.428,1.222.9.9,0,0,0,.4.092.917.917,0,0,0,.825-.52l1.833-3.825a.042.042,0,0,1,.007-.028.881.881,0,0,0,.05-.194.949.949,0,0,0,.035-.151A.914.914,0,0,0,62.64,50.556Z" transform="translate(-48 -48.134)" fill="#fff"/>
        </g>
      </g>
    </g>
  </g>
</svg>
