<svg xmlns="http://www.w3.org/2000/svg" width="60.613" height="60.613" viewBox="0 0 60.613 60.613">
  <g id="Group_365" data-name="Group 365" transform="translate(-807 -6480)">
    <g id="teamwork" transform="translate(807 6480)">
      <path id="Path_406" data-name="Path 406" d="M58.146,9.458a10.6,10.6,0,0,0-.7-1.692l1.4-2.1-3.9-3.9-2.1,1.4a10.76,10.76,0,0,0-1.692-.7L50.66,0H45.147l-.5,2.467a10.6,10.6,0,0,0-1.692.7l-2.1-1.4-3.9,3.9,1.4,2.1A10.415,10.415,0,0,0,37.9,8.8H35.195v1.955h7.169l3.911-2.933h3.289l2.252,1.5v.454H46.926v5.866h4.888V16.1l-2.252,1.5H46.274l-3.911-2.933H35.087a6.82,6.82,0,0,0-9.56,0H18.25L14.339,17.6H11.051L8.8,16.1v-.454h4.888V9.776H8.8V9.322l2.252-1.5h3.289l3.911,2.933h7.169V8.8H22.71a10.877,10.877,0,0,0-.461-1.033l1.4-2.1-3.9-3.9-2.1,1.4a10.76,10.76,0,0,0-1.692-.7L15.465,0H9.953l-.5,2.467a10.6,10.6,0,0,0-1.692.7l-2.094-1.4-3.9,3.9,1.4,2.1a10.76,10.76,0,0,0-.7,1.692L0,9.953v5.513l2.467.5a10.6,10.6,0,0,0,.7,1.692l-1.4,2.1,3.9,3.9,2.094-1.4a10.76,10.76,0,0,0,1.692.7l.5,2.467h5.513l.5-2.467a10.6,10.6,0,0,0,1.692-.7l2.1,1.4,3.715-3.716v2.555A6.863,6.863,0,0,0,26.4,28.095v1.484l-3.669,1.1a6.834,6.834,0,0,0-11.973,4.515v2.933a6.863,6.863,0,0,0,2.933,5.609v1.484L7.394,47.109a4.858,4.858,0,0,0-3.483,4.683v8.821H56.7V51.792a4.859,4.859,0,0,0-3.483-4.683l-6.293-1.888V43.737a6.864,6.864,0,0,0,2.933-5.609V35.195A6.834,6.834,0,0,0,37.886,30.68l-3.669-1.1V28.095a6.864,6.864,0,0,0,2.933-5.609V19.93l3.716,3.716,2.1-1.4a10.76,10.76,0,0,0,1.692.7l.5,2.467h5.513l.5-2.467a10.6,10.6,0,0,0,1.692-.7l2.1,1.4,3.9-3.9-1.4-2.1a10.76,10.76,0,0,0,.7-1.692l2.467-.5V9.952ZM30.307,14.664A4.9,4.9,0,0,1,35.1,18.575h-2.6a8.334,8.334,0,0,1-3.7-.875l-.631-.315-.5.5a2.342,2.342,0,0,1-1.668.691h-.474a4.9,4.9,0,0,1,4.789-3.911ZM19.5,21.128l-1.771-1.179-.529.315a8.733,8.733,0,0,1-2.321.962l-.6.152-.415,2.085H11.556l-.416-2.084-.6-.152a8.783,8.783,0,0,1-2.322-.962l-.53-.315-1.77,1.179L4.29,19.5l1.179-1.771L5.154,17.2a8.733,8.733,0,0,1-.962-2.321l-.152-.6-2.085-.416V11.555l2.084-.416.152-.6a8.764,8.764,0,0,1,.962-2.321l.315-.529L4.29,5.922,5.922,4.29,7.692,5.469l.529-.315a8.733,8.733,0,0,1,2.321-.962l.6-.152.415-2.085h2.308l.416,2.084.6.152a8.764,8.764,0,0,1,2.321.962l.529.315L19.5,4.289l1.632,1.632L19.95,7.691l.316.53c.11.186.2.383.3.578H18.9L14.99,5.866H10.458L6.844,8.275v3.456h4.888v1.955H6.844v3.456l3.614,2.41H14.99L18.9,16.62h1.665c-.1.195-.189.392-.3.578l-.316.53L21.129,19.5ZM22.71,16.62h1.423a6.8,6.8,0,0,0-.666,2.859l-1.218-1.827a10.3,10.3,0,0,0,.461-1.033ZM17.6,30.306a4.9,4.9,0,0,1,4.789,3.911h-2.6a8.334,8.334,0,0,1-3.7-.875l-.631-.315-.5.5a2.342,2.342,0,0,1-1.668.691h-.474A4.9,4.9,0,0,1,17.6,30.306Zm-4.888,7.821V36.172h.573a4.286,4.286,0,0,0,2.516-.808,10.3,10.3,0,0,0,3.985.808h2.7v1.955a4.9,4.9,0,0,1-2.445,4.228l-.488.282v2.787l-1.955,1.3-1.955-1.3V42.638l-.488-.282a4.9,4.9,0,0,1-2.445-4.228Zm16.62,20.53H5.866V51.792a2.914,2.914,0,0,1,2.09-2.81l6.549-1.964L17.6,49.079l3.092-2.062,6.549,1.964a2.916,2.916,0,0,1,2.09,2.811Zm23.328-9.676a2.914,2.914,0,0,1,2.09,2.81v6.866H31.284V51.792a2.914,2.914,0,0,1,2.09-2.81l6.549-1.964,3.092,2.061,3.092-2.062Zm-7.2-6.626-.488.282v2.787l-1.955,1.3-1.955-1.3V42.638l-.488-.282a4.9,4.9,0,0,1-2.445-4.228V36.172H38.7a4.286,4.286,0,0,0,2.516-.808,10.3,10.3,0,0,0,3.985.808h2.7v1.955a4.9,4.9,0,0,1-2.445,4.228ZM43.016,30.306a4.9,4.9,0,0,1,4.789,3.911H45.2a8.334,8.334,0,0,1-3.7-.875l-.631-.315-.5.5a2.342,2.342,0,0,1-1.668.691h-.474a4.9,4.9,0,0,1,4.789-3.911ZM36.781,32.39a6.8,6.8,0,0,0-.608,2.8v2.933a6.863,6.863,0,0,0,2.933,5.609v1.484l-6.293,1.888a4.881,4.881,0,0,0-2.506,1.736A4.884,4.884,0,0,0,27.8,47.109l-6.293-1.888V43.737a6.864,6.864,0,0,0,2.933-5.609V35.195a6.8,6.8,0,0,0-.608-2.8l3.382-1.015,3.092,2.062L33.4,31.375ZM32.75,26.714,32.262,27v2.787l-1.955,1.3-1.955-1.3V27l-.488-.282a4.9,4.9,0,0,1-2.445-4.228V20.53h.573a4.286,4.286,0,0,0,2.516-.808,10.3,10.3,0,0,0,3.985.808h2.7v1.955a4.9,4.9,0,0,1-2.445,4.228Zm4.4-7.235a6.794,6.794,0,0,0-.666-2.859H37.9a10.875,10.875,0,0,0,.461,1.033Zm21.512-5.615-2.084.416-.152.6A8.764,8.764,0,0,1,55.46,17.2l-.315.529L56.324,19.5l-1.632,1.632-1.771-1.179-.529.315a8.733,8.733,0,0,1-2.321.962l-.6.152-.416,2.084H46.75l-.416-2.084-.6-.152a8.764,8.764,0,0,1-2.321-.962l-.529-.315-1.771,1.179L39.485,19.5l1.179-1.771-.316-.53c-.11-.186-.2-.383-.3-.578h1.665l3.911,2.933h4.532l3.614-2.41V13.687H48.882V11.732H53.77V8.275l-3.614-2.41H45.623L41.713,8.8H40.048c.1-.195.189-.392.3-.578l.316-.53L39.485,5.921l1.632-1.632,1.771,1.179.529-.315a8.733,8.733,0,0,1,2.321-.962l.6-.152.415-2.084h2.308l.416,2.084.6.152a8.764,8.764,0,0,1,2.321.962l.529.315,1.771-1.179,1.632,1.632L55.144,7.691l.315.529a8.732,8.732,0,0,1,.962,2.321l.152.6,2.085.416Zm0,0" transform="translate(0)" fill="#00aeef"/>
      <path id="Path_407" data-name="Path 407" d="M256,72h1.955v1.955H256Zm0,0" transform="translate(-224.716 -63.201)" fill="#00aeef"/>
      <path id="Path_408" data-name="Path 408" d="M224,72h1.955v1.955H224Zm0,0" transform="translate(-196.626 -63.201)" fill="#00aeef"/>
      <path id="Path_409" data-name="Path 409" d="M48,320h1.955v1.955H48Zm0,0" transform="translate(-42.134 -280.895)" fill="#00aeef"/>
      <path id="Path_410" data-name="Path 410" d="M32,336h1.955v1.955H32Zm0,0" transform="translate(-28.089 -294.94)" fill="#00aeef"/>
      <path id="Path_411" data-name="Path 411" d="M48,352h1.955v1.955H48Zm0,0" transform="translate(-42.134 -308.984)" fill="#00aeef"/>
      <path id="Path_412" data-name="Path 412" d="M64,336h1.955v1.955H64Zm0,0" transform="translate(-56.179 -294.94)" fill="#00aeef"/>
      <path id="Path_413" data-name="Path 413" d="M16,224h1.955v1.955H16Zm0,0" transform="translate(-14.045 -196.626)" fill="#00aeef"/>
      <path id="Path_414" data-name="Path 414" d="M0,240H1.955v1.955H0Zm0,0" transform="translate(0 -210.671)" fill="#00aeef"/>
      <path id="Path_415" data-name="Path 415" d="M16,256h1.955v1.955H16Zm0,0" transform="translate(-14.045 -224.716)" fill="#00aeef"/>
      <path id="Path_416" data-name="Path 416" d="M32,240h1.955v1.955H32Zm0,0" transform="translate(-28.089 -210.671)" fill="#00aeef"/>
      <path id="Path_417" data-name="Path 417" d="M432,320h1.955v1.955H432Zm0,0" transform="translate(-379.208 -280.895)" fill="#00aeef"/>
      <path id="Path_418" data-name="Path 418" d="M448,336h1.955v1.955H448Zm0,0" transform="translate(-393.253 -294.94)" fill="#00aeef"/>
      <path id="Path_419" data-name="Path 419" d="M432,352h1.955v1.955H432Zm0,0" transform="translate(-379.208 -308.984)" fill="#00aeef"/>
      <path id="Path_420" data-name="Path 420" d="M416,336h1.955v1.955H416Zm0,0" transform="translate(-365.163 -294.94)" fill="#00aeef"/>
      <path id="Path_421" data-name="Path 421" d="M464,224h1.955v1.955H464Zm0,0" transform="translate(-407.298 -196.626)" fill="#00aeef"/>
      <path id="Path_422" data-name="Path 422" d="M480,240h1.955v1.955H480Zm0,0" transform="translate(-421.342 -210.671)" fill="#00aeef"/>
      <path id="Path_423" data-name="Path 423" d="M464,256h1.955v1.955H464Zm0,0" transform="translate(-407.298 -224.716)" fill="#00aeef"/>
      <path id="Path_424" data-name="Path 424" d="M448,240h1.955v1.955H448Zm0,0" transform="translate(-393.253 -210.671)" fill="#00aeef"/>
    </g>
  </g>
</svg>
