<svg xmlns="http://www.w3.org/2000/svg" width="60.363" height="60.813" viewBox="0 0 60.363 60.813">
  <g id="Group_366" data-name="Group 366" transform="translate(-472 -6484)">
    <g id="paint" transform="translate(470.109 6483.999)">
      <path id="Path_401" data-name="Path 401" d="M177.1,66.02a4.8,4.8,0,1,0-4.8-4.8A4.8,4.8,0,0,0,177.1,66.02Zm0-7.816a3.017,3.017,0,1,1-3.017,3.017A3.021,3.021,0,0,1,177.1,58.2Z" transform="translate(-150.169 -49.72)" fill="#00aeef"/>
      <path id="Path_402" data-name="Path 402" d="M157.093,355.511a5.492,5.492,0,1,0-5.492-5.492A5.5,5.5,0,0,0,157.093,355.511Zm0-9.2a3.71,3.71,0,1,1-3.71,3.71A3.715,3.715,0,0,1,157.093,346.309Z" transform="translate(-131.929 -303.605)" fill="#00aeef"/>
      <path id="Path_403" data-name="Path 403" d="M88.418,131.633a5.822,5.822,0,1,0,5.823,5.823A5.829,5.829,0,0,0,88.418,131.633Zm0,9.864a4.041,4.041,0,1,1,4.041-4.041A4.045,4.045,0,0,1,88.418,141.5Z" transform="translate(-71.12 -115.997)" fill="#00aeef"/>
      <path id="Path_404" data-name="Path 404" d="M74.379,262.326a5.823,5.823,0,1,0-5.823-5.823A5.829,5.829,0,0,0,74.379,262.326Zm0-9.864a4.041,4.041,0,1,1-4.041,4.041A4.045,4.045,0,0,1,74.379,252.462Z" transform="translate(-58.747 -220.906)" fill="#00aeef"/>
      <path id="Path_405" data-name="Path 405" d="M21.435,58.254a.891.891,0,0,0,.32-1.753,15.724,15.724,0,0,1-8.833-4.9C6.036,44.085,2.97,35.976,3.809,27.5,5.7,8.376,25.871-1.143,44.471,2.577a4.34,4.34,0,0,1,3.566,4.152,4.283,4.283,0,0,1-3.123,4.406,17.153,17.153,0,0,0-7.356,4.056,11.536,11.536,0,0,0-.529,15.395,15.677,15.677,0,0,1,3.509,7.937c-2.017,4.585-4.08,9.777-5.677,14.583a16.125,16.125,0,0,1-9.167,3.622.891.891,0,0,0,.057,1.78l.059,0a17.982,17.982,0,0,0,8.157-2.583A3.839,3.839,0,0,0,41,58.864c1.715-3.035,3.574-6.719,5.375-10.653a.891.891,0,1,0-1.62-.742c-1.78,3.889-3.615,7.526-5.306,10.518a2.065,2.065,0,0,1-2.684.844,2.044,2.044,0,0,1-1.08-2.447,172.308,172.308,0,0,1,9.648-23.959l4.788,2.05c-1.116,3.042-2.388,6.21-3.686,9.213a.891.891,0,0,0,1.636.706,146.953,146.953,0,0,0,6.764-18.716,2.022,2.022,0,0,0,1.192-1.119l.771-1.8a2.034,2.034,0,0,0,.13-1.179,11.987,11.987,0,0,0,4.634-5.147c1.329-3.1.446-8.362-.2-11.219A1.755,1.755,0,0,0,58.75,4.092c-2.513,1.507-6.927,4.5-8.255,7.6a11.987,11.987,0,0,0-.526,6.9,2.031,2.031,0,0,0-.764.91l-.771,1.8a2.021,2.021,0,0,0,.013,1.634,129.533,129.533,0,0,0-6.678,12.842,17.4,17.4,0,0,0-3.374-6.341,9.438,9.438,0,0,1-2.252-6.216c0-5.051,3.123-8.544,9.281-10.384a6.008,6.008,0,0,0,4.393-6.2,6.147,6.147,0,0,0-5-5.816C25.213-3.092,4.04,7.1,2.036,27.326c-.891,9,2.329,17.573,9.572,25.481a17.492,17.492,0,0,0,9.827,5.448ZM49.813,24.123,53.039,25.5c-.582,2.142-1.371,4.631-2.311,7.291l-4.6-1.967c1.277-2.517,2.533-4.806,3.68-6.705Zm5.349-2.067-.771,1.8a.265.265,0,0,1-.347.139L50.21,22.355a.265.265,0,0,1-.139-.347l.771-1.8a.265.265,0,0,1,.348-.139l3.833,1.641a.267.267,0,0,1,.139.347Zm-3.03-9.663c.39-.911,1.9-3.391,7.5-6.755,1.433,6.374.681,9.18.291,10.091A10.282,10.282,0,0,1,55.87,20.14c-.048-.025-.1-.048-.146-.069L51.891,18.43h0q-.074-.032-.151-.057a10.286,10.286,0,0,1,.392-5.979Z" transform="translate(0 0)" fill="#00aeef"/>
    </g>
  </g>
</svg>
