<svg xmlns="http://www.w3.org/2000/svg" width="60.167" height="60.18" viewBox="0 0 60.167 60.18">
  <g id="Group_367" data-name="Group 367" transform="translate(-1110 -6484)">
    <path id="technical-support" d="M64.353,32.627,61.329,30.5a26.8,26.8,0,0,0-5.26-15.19A26.7,26.7,0,0,0,7.957,30.507L4.94,32.627a.887.887,0,0,0-.377.725v9.42a.885.885,0,0,0,.373.721L8.32,45.911a.887.887,0,0,0,.513.167H12.2a.886.886,0,0,0,.886-.886V31.032c0-.012,0-.024,0-.037a21.552,21.552,0,1,1,43.1,0,.362.362,0,0,0,.007.1v14.1a.886.886,0,0,0,.886.886h.8V47.1a5.646,5.646,0,0,1-4.783,5.568,20.055,20.055,0,0,0,1.709-8.113V31.571a20.172,20.172,0,0,0-40.345,0V44.553A20.166,20.166,0,0,0,52.176,54.51h.071A7.422,7.422,0,0,0,59.661,47.1V46.078h.8a.887.887,0,0,0,.515-.165l3.384-2.418a.885.885,0,0,0,.371-.721V33.352a.887.887,0,0,0-.377-.725ZM34.643,13.17a18.424,18.424,0,0,1,18.4,18.4v4.77a18.072,18.072,0,0,1-17.635-9.006.886.886,0,0,0-1.533,0,18.072,18.072,0,0,1-17.635,9.006v-4.77a18.424,18.424,0,0,1,18.4-18.4Zm0,49.784a18.424,18.424,0,0,1-18.4-18.4V38.121c.614.056,1.231.1,1.848.1a20.089,20.089,0,0,0,16.551-8.774A20.089,20.089,0,0,0,51.2,38.217c.617,0,1.234-.039,1.848-.1v6.432a18.286,18.286,0,0,1-1.929,8.186H42.808a2.89,2.89,0,0,0-2.746-2H36.554a2.885,2.885,0,1,0,0,5.77h3.509a2.89,2.89,0,0,0,2.745-2h7.3a18.4,18.4,0,0,1-15.462,8.445Zm6.529-9.275a1.114,1.114,0,0,1-1.109,1.06H36.554a1.114,1.114,0,0,1,0-2.227h3.509a1.114,1.114,0,0,1,1.109,1.06c0,.018-.006.035-.006.054S41.17,53.661,41.172,53.679ZM11.318,44.306h-2.2L6.333,42.318v-8.5l2.778-1.949h2.2ZM34.643,8.117A23.459,23.459,0,0,0,11.356,30.092H9.737a24.933,24.933,0,0,1,49.811,0H57.929A23.46,23.46,0,0,0,34.643,8.113Zm28.316,34.2-2.784,1.988h-2.2V31.863h2.2l2.778,1.949Z" transform="translate(1105.437 6479.453)" fill="#00aeef"/>
  </g>
</svg>
