<svg xmlns="http://www.w3.org/2000/svg" width="50.899" height="64.18" viewBox="0 0 50.899 64.18">
  <g id="Group_368" data-name="Group 368" transform="translate(-1440 -6480)">
    <g id="_005---Rosette" data-name="005---Rosette" transform="translate(1439.781 6480)">
      <path id="Shape" d="M.241,29.322c.246,1.69,2.535,2.386,2.835,2.974.107.685-1.476,2.5-.77,4.044a3.562,3.562,0,0,0,2.428,1.594,4.557,4.557,0,0,1,1.123.449c.289.631-.706,2.813.407,4.1.867.995,2.353.781,3.53.877L4.446,56.323a2.14,2.14,0,0,0,2.45,2.9l6.173-1.391,3.391,5.349a2.14,2.14,0,0,0,3.787-.321L25.06,51.252a1.979,1.979,0,0,0,1.22,0l4.814,11.607a2.14,2.14,0,0,0,3.776.332l3.4-5.349,6.162,1.38a2.14,2.14,0,0,0,2.46-2.888L41.545,43.379c1.134-.107,2.653.118,3.53-.888,1.07-1.273.139-3.487.4-4.076.439-.513,2.856-.524,3.562-2.065s-.867-3.38-.77-4.022c.289-.62,2.589-1.305,2.835-3s-1.819-3.006-1.9-3.659,2.14-1.99,1.883-3.659-2.546-2.4-2.835-2.974c-.107-.685,1.476-2.5.77-4.044A3.562,3.562,0,0,0,46.584,13.4a4.557,4.557,0,0,1-1.123-.449c-.289-.62.7-2.824-.407-4.1s-3.434-.631-3.98-.963c-.439-.5-.107-2.9-1.508-3.808s-3.466.353-4.086.182c-.578-.374-.931-2.749-2.557-3.209S29.713,2.4,29.061,2.407C28.376,2.14,27.36,0,25.659,0s-2.728,2.14-3.338,2.375c-.7,0-2.279-1.808-3.894-1.337A3.52,3.52,0,0,0,16.5,3.177a4.279,4.279,0,0,1-.61,1.07c-.642.2-2.7-1.07-4.108-.171A3.53,3.53,0,0,0,10.554,6.7a4.279,4.279,0,0,1-.289,1.177c-.588.374-2.888-.3-4,.984s-.128,3.477-.4,4.076c-.439.513-2.856.524-3.562,2.065s.856,3.38.77,4.022c-.289.62-2.589,1.305-2.835,3s1.8,3,1.883,3.659c-.086.674-2.14,1.979-1.883,3.648ZM6.4,57.136,10.939,46.2c1.07,2.642,4.215.663,4.932.877a1.455,1.455,0,0,1,.31.428L12.822,55.7Zm11.853,4.91-3.5-5.52L17.55,49.8c1.787,1.722,4.012-.813,4.739-.824a4.365,4.365,0,0,1,.9.834C23.338,49.979,23.68,48.974,18.256,62.046Zm14.795,0C27.638,48.974,27.97,49.979,28.13,49.8A4.825,4.825,0,0,1,29,48.974c.834,0,2.963,2.557,4.771.813l2.792,6.729ZM38.5,55.7,35.137,47.5a1.316,1.316,0,0,1,.289-.407c.76-.246,3.84,1.787,4.953-.9l4.536,10.933ZM3.322,21.566c2.043-1.38,2.332-2.14,1.327-4.536a9.628,9.628,0,0,1-.417-1.07,4.183,4.183,0,0,1,1.155-.471C7.773,14.731,8.243,14,7.944,11.5a8.419,8.419,0,0,1-.1-1.177,4.279,4.279,0,0,1,1.241-.128c2.482-.064,3.209-.6,3.573-3.1a6.782,6.782,0,0,1,.246-1.166,4.119,4.119,0,0,1,1.209.225c2.482.653,3.209.235,4.279-1.968a7.093,7.093,0,0,1,.556-1.07,4.14,4.14,0,0,1,1.07.546c2.214,1.348,3.06,1.07,4.686-.663a6.1,6.1,0,0,1,.952-.856,3.969,3.969,0,0,1,.92.845c1.712,1.883,2.578,1.947,4.686.663a7.98,7.98,0,0,1,1.07-.567,3.894,3.894,0,0,1,.631,1.07c1.07,2.225,1.851,2.621,4.279,1.968a7.6,7.6,0,0,1,1.145-.257,3.765,3.765,0,0,1,.31,1.2c.407,2.439,1.07,3.038,3.584,3.1a7.489,7.489,0,0,1,1.177.075,4.2,4.2,0,0,1,0,1.241c-.3,2.5.182,3.209,2.567,3.98a6.964,6.964,0,0,1,1.07.407,4.172,4.172,0,0,1-.385,1.166c-1.006,2.343-.717,3.209,1.327,4.536a6.921,6.921,0,0,1,.963.717,4.279,4.279,0,0,1-.7.995c-1.615,1.958-1.615,2.835,0,4.793a8.611,8.611,0,0,1,.706.92,3.99,3.99,0,0,1-.973.792c-2.022,1.359-2.343,2.14-1.327,4.536a9.629,9.629,0,0,1,.417,1.07,4.183,4.183,0,0,1-1.155.471c-2.375.76-2.856,1.476-2.557,3.99a8.419,8.419,0,0,1,.1,1.177c-.7.439-3.209-.471-4.279,1.4a5.488,5.488,0,0,0-.524,1.829,6.782,6.782,0,0,1-.246,1.166,4,4,0,0,1-1.209-.225c-2.257-.6-3.209-.407-4.226,1.819a11.768,11.768,0,0,1-.642,1.2,4.14,4.14,0,0,1-1.07-.546c-2.14-1.327-3.017-1.166-4.686.663a4.429,4.429,0,0,1-.973.877,4.429,4.429,0,0,1-.888-.834c-1.658-1.829-2.514-1.99-4.686-.663a7.98,7.98,0,0,1-1.07.567c-.535-.332-.9-2.493-2.289-3.134s-3.209.417-3.8.353a3.766,3.766,0,0,1-.31-1.2,4.835,4.835,0,0,0-.706-2.14,4.14,4.14,0,0,0-.3-.353c-1.123-.973-3.209-.492-3.755-.727-.267-.588.6-2.589-.235-3.873s-2.91-1.348-3.359-1.722c-.086-.62,1.294-2.321.867-3.787a3.883,3.883,0,0,0-1.808-1.915,6.921,6.921,0,0,1-.963-.717c.107-.61,1.9-1.851,1.9-3.391s-1.712-2.739-1.915-3.316a3.99,3.99,0,0,1,.973-.792Z" transform="translate(0)" fill="#00aeef"/>
      <path id="Shape-2" data-name="Shape" d="M25.186,43.372A18.186,18.186,0,1,0,7,25.186,18.186,18.186,0,0,0,25.186,43.372Zm-8.344-16.6-6.633-6.526c-.16.16-.941.995,0-.128l9.179-1.348a2.14,2.14,0,0,0,1.658-1.209c4.386-8.943,4.14-8.494,4.193-8.419l4.086,8.376a2.14,2.14,0,0,0,1.658,1.252l9.179,1.348.086-.567-.064.653-6.611,6.526a2.246,2.246,0,0,0-.631,1.958c1.733,10.227,1.6,9.168,1.476,9.286-8.708-4.632-8.419-4.6-9.189-4.6s-.235-.171-9.189,4.6l-.086-.086,1.562-9.2a2.247,2.247,0,0,0-.674-1.915Zm1.016,12.677,7.328-3.894,7.306,3.894A15.9,15.9,0,0,1,17.858,39.446Zm18.56-2.813-1.38-8.344,5.937-5.862A15.929,15.929,0,0,1,36.418,36.632Zm3.027-18.785-8.205-1.22-3.53-7.274A16.046,16.046,0,0,1,39.446,17.847ZM22.661,9.353l-3.584,7.274-8.152,1.209A16.121,16.121,0,0,1,22.661,9.353ZM9.4,22.426,15.355,28.4l-1.391,8.269A15.9,15.9,0,0,1,9.4,22.426Z" transform="translate(0.473 0.488)" fill="#00aeef"/>
    </g>
  </g>
</svg>
