<svg xmlns="http://www.w3.org/2000/svg" width="90" height="90" viewBox="0 0 90 90">
  <g id="Group_365" data-name="Group 365" transform="translate(-1315 -1220)">
    <circle id="Ellipse_24" data-name="Ellipse 24" cx="45" cy="45" r="45" transform="translate(1315 1220)" fill="#fef8e2"/>
    <g id="art-and-design" transform="translate(1339 1244.648)">
      <g id="Group_175" data-name="Group 175">
        <path id="Path_199" data-name="Path 199" d="M20.676,0a20.676,20.676,0,0,0,0,41.352,3.441,3.441,0,0,0,3.446-3.446,3.369,3.369,0,0,0-.9-2.309,3.451,3.451,0,0,1,2.584-5.732h4.055A11.491,11.491,0,0,0,41.352,18.379C41.352,8.224,32.094,0,20.676,0ZM8.041,20.676a3.446,3.446,0,1,1,3.446-3.446A3.441,3.441,0,0,1,8.041,20.676Zm6.892-9.189a3.446,3.446,0,1,1,3.446-3.446A3.441,3.441,0,0,1,14.933,11.487Zm11.487,0a3.446,3.446,0,1,1,3.446-3.446A3.441,3.441,0,0,1,26.419,11.487Zm6.892,9.189a3.446,3.446,0,1,1,3.446-3.446A3.441,3.441,0,0,1,33.311,20.676Z" fill="#ffc800"/>
      </g>
    </g>
  </g>
</svg>
