<svg xmlns="http://www.w3.org/2000/svg" width="90" height="90" viewBox="0 0 90 90">
  <g id="Group_364" data-name="Group 364" transform="translate(-915 -1220)">
    <circle id="Ellipse_15" data-name="Ellipse 15" cx="45" cy="45" r="45" transform="translate(915 1220)" fill="#f4e7fb"/>
    <g id="edit-tools" transform="translate(940 1244.998)">
      <g id="Group_174" data-name="Group 174" transform="translate(0 0.002)">
        <path id="Path_198" data-name="Path 198" d="M39.159,6.531,33.673,1.04a3.739,3.739,0,0,0-5.174,0L3.922,25.861a.92.92,0,0,0-.23.393L.035,39.066A.915.915,0,0,0,1.165,40.2l12.8-3.66a.918.918,0,0,0,.393-.231l24.8-24.6a3.661,3.661,0,0,0,0-5.176ZM24.514,7.694l3.366,3.366L10.308,28.631,9.047,26.108a.915.915,0,0,0-.818-.505H6.765ZM2.246,37.986l1.191-4.169L6.414,36.8ZM12.8,34.971l-4.375,1.25L4.011,31.806l1.25-4.375h2.4l1.576,3.152a.915.915,0,0,0,.409.409L12.8,32.568v2.4Zm1.829-1.5V32a.915.915,0,0,0-.505-.818L11.6,29.924,29.172,12.352l3.366,3.366ZM37.868,10.435l-4.032,4L25.8,6.4l3.993-4.029a1.872,1.872,0,0,1,2.586,0l5.486,5.486a1.828,1.828,0,0,1,0,2.583Z" transform="translate(0 -0.002)" fill="#a600ff"/>
      </g>
    </g>
  </g>
</svg>
