<svg id="archive" xmlns="http://www.w3.org/2000/svg" width="60" height="60" viewBox="0 0 60 60">
  <path id="Path_263" data-name="Path 263" d="M45.938,65.391v42.3a5.266,5.266,0,0,1-5.273,5.273H5.273A5.266,5.266,0,0,1,0,107.7v-42.3A5.367,5.367,0,0,1,5.273,60H40.664A5.367,5.367,0,0,1,45.938,65.391Z" transform="translate(0 -52.969)" fill="#0f60cf"/>
  <path id="Path_264" data-name="Path 264" d="M68.906,92.758v42.3a1.741,1.741,0,0,1-1.758,1.758H31.758A1.741,1.741,0,0,1,30,135.063v-42.3A1.741,1.741,0,0,1,31.758,91H67.148A1.741,1.741,0,0,1,68.906,92.758Z" transform="translate(-26.484 -80.336)" fill="#cae8f9"/>
  <path id="Path_265" data-name="Path 265" d="M218.969,65.391v42.3a5.266,5.266,0,0,1-5.273,5.273H196V60h17.7A5.367,5.367,0,0,1,218.969,65.391Z" transform="translate(-173.031 -52.969)" fill="#0a4eaf"/>
  <path id="Path_266" data-name="Path 266" d="M215.453,92.758v42.3a1.741,1.741,0,0,1-1.758,1.758H196V91h17.7A1.741,1.741,0,0,1,215.453,92.758Z" transform="translate(-173.031 -80.336)" fill="#b7e0f6"/>
  <path id="Path_267" data-name="Path 267" d="M113.086,3.516h-5.707A5.257,5.257,0,0,0,102.422,0a5.41,5.41,0,0,0-5.074,3.516h-5.59A1.741,1.741,0,0,0,90,5.273V8.906a5.266,5.266,0,0,0,5.273,5.273h14.18a5.367,5.367,0,0,0,5.391-5.273V5.273A1.741,1.741,0,0,0,113.086,3.516Z" transform="translate(-79.453)" fill="#fcbf29"/>
  <g id="Group_187" data-name="Group 187" transform="translate(7.031 30)">
    <path id="Path_268" data-name="Path 268" d="M64.031,266.032l-3.516-3.516A1.758,1.758,0,0,1,63,260.03l2.273,2.273,5.788-5.788A1.758,1.758,0,0,1,73.548,259l-7.031,7.031A1.757,1.757,0,0,1,64.031,266.032Z" transform="translate(-60.001 -256)" fill="#32d736"/>
    <path id="Path_269" data-name="Path 269" d="M64.031,371.032l-3.516-3.516A1.758,1.758,0,0,1,63,365.03l2.273,2.273,5.788-5.788A1.758,1.758,0,0,1,73.548,364l-7.031,7.031A1.538,1.538,0,0,1,64.031,371.032Z" transform="translate(-60.001 -348.695)" fill="#32d736"/>
  </g>
  <path id="Path_270" data-name="Path 270" d="M67.759,156.273,70.032,154a1.758,1.758,0,1,0-2.486-2.486l-2.273,2.273L63,151.515A1.758,1.758,0,1,0,60.515,154l2.273,2.273-2.273,2.273A1.758,1.758,0,0,0,63,161.032l2.273-2.273,2.273,2.273a1.758,1.758,0,1,0,2.486-2.486Z" transform="translate(-52.969 -133.304)" fill="#fd4e26"/>
  <g id="Group_188" data-name="Group 188" transform="translate(24.727 21.211)">
    <path id="Path_271" data-name="Path 271" d="M223.422,184.516H212.758a1.758,1.758,0,0,1,0-3.516h10.664a1.758,1.758,0,0,1,0,3.516Z" transform="translate(-211 -181)" fill="#4dbbeb"/>
    <path id="Path_272" data-name="Path 272" d="M223.422,289.516H212.758a1.758,1.758,0,0,1,0-3.516h10.664a1.758,1.758,0,0,1,0,3.516Z" transform="translate(-211 -273.695)" fill="#4dbbeb"/>
    <path id="Path_273" data-name="Path 273" d="M223.422,394.516H212.758a1.758,1.758,0,0,1,0-3.516h10.664a1.758,1.758,0,0,1,0,3.516Z" transform="translate(-211 -366.391)" fill="#4dbbeb"/>
  </g>
  <path id="Path_274" data-name="Path 274" d="M208.422,5.273V8.906a5.367,5.367,0,0,1-5.391,5.273H196V0a5.257,5.257,0,0,1,4.957,3.516h5.707A1.741,1.741,0,0,1,208.422,5.273Z" transform="translate(-173.031)" fill="#fe9923"/>
  <path id="Path_275" data-name="Path 275" d="M432.547,96.273v5.273l-3.516,3.516h-3.516L422,101.547V96.273a5.273,5.273,0,0,1,10.547,0Z" transform="translate(-372.547 -80.336)" fill="#0f60cf"/>
  <path id="Path_276" data-name="Path 276" d="M472.273,96.273v5.273l-3.516,3.516H467V91A5.266,5.266,0,0,1,472.273,96.273Z" transform="translate(-412.273 -80.336)" fill="#0a4eaf"/>
  <path id="Path_277" data-name="Path 277" d="M432.547,181v22.852l-1.758,1.758h-7.031L422,203.852V181Z" transform="translate(-372.547 -159.789)" fill="#fea832"/>
  <path id="Path_278" data-name="Path 278" d="M472.273,181v22.852l-1.758,1.758H467V181Z" transform="translate(-412.273 -159.789)" fill="#fe9923"/>
  <path id="Path_279" data-name="Path 279" d="M432.1,350.67a6.7,6.7,0,0,0-9.492,0,1.7,1.7,0,0,0-.422,1.793l3.516,10.664a1.74,1.74,0,0,0,3.3,0l3.516-10.664A1.7,1.7,0,0,0,432.1,350.67Z" transform="translate(-372.626 -307.838)" fill="#fedb41"/>
  <path id="Path_280" data-name="Path 280" d="M471.746,350.67a1.7,1.7,0,0,1,.422,1.793l-3.516,10.664a1.71,1.71,0,0,1-1.652,1.2V348.7A6.71,6.71,0,0,1,471.746,350.67Z" transform="translate(-412.273 -307.838)" fill="#fcbf29"/>
</svg>
