<svg xmlns="http://www.w3.org/2000/svg" width="60.198" height="60.198" viewBox="0 0 60.198 60.198">
  <g id="Group_368" data-name="Group 368" transform="translate(-1294 -3117)">
    <g id="business" transform="translate(1294 3117)">
      <path id="Path_281" data-name="Path 281" d="M73.751,61.4h-36.9V11.884A3.884,3.884,0,0,0,32.971,8h36.9a3.884,3.884,0,0,1,3.884,3.884Z" transform="translate(-28.116 -7.029)" fill="#ececec"/>
      <g id="Group_189" data-name="Group 189" transform="translate(0.971 0.971)">
        <path id="Path_282" data-name="Path 282" d="M72,391.768h40.78a3.884,3.884,0,0,0,3.884-3.884V384h-36.9v3.884a3.884,3.884,0,0,1-3.884,3.884Z" transform="translate(-64.232 -338.366)" fill="#fea82f"/>
        <g id="Group_364" data-name="Group 364">
          <path id="Path_283" data-name="Path 283" d="M15.768,19.651H8V11.884A3.884,3.884,0,0,1,11.884,8h0a3.884,3.884,0,0,1,3.884,3.884Z" transform="translate(-8 -8)" fill="#fea82f"/>
        </g>
      </g>
      <path id="Path_284" data-name="Path 284" d="M326.8,155.672a9.712,9.712,0,0,0,0,18.528Z" transform="translate(-281.162 -136.778)" fill="#b6c1ce"/>
      <ellipse id="Ellipse_27" data-name="Ellipse 27" cx="9.5" cy="9" rx="9.5" ry="9" transform="translate(40 16)" fill="#fea82f"/>
      <path id="Path_285" data-name="Path 285" d="M337.709,208.738A9.711,9.711,0,0,1,328.049,200c-.031.319-.049.643-.049.971a9.709,9.709,0,1,0,19.419,0c0-.328-.018-.651-.049-.971A9.711,9.711,0,0,1,337.709,208.738Z" transform="translate(-288.191 -175.726)" fill="#ff8031"/>
      <g id="Group_190" data-name="Group 190" transform="translate(0.98 4.9)">
        <rect id="Rectangle_61" data-name="Rectangle 61" width="12" height="8" transform="translate(0.02 46.1)" fill="#92e0c0"/>
        <rect id="Rectangle_62" data-name="Rectangle 62" width="27" height="11" transform="translate(13.02 0.1)" fill="#92e0c0"/>
      </g>
      <rect id="Rectangle_63" data-name="Rectangle 63" width="8" height="3" transform="translate(1 10)" fill="#ff8031"/>
      <rect id="Rectangle_64" data-name="Rectangle 64" width="12" height="2" transform="translate(1 57)" fill="#48c397"/>
      <path id="Path_286" data-name="Path 286" d="M32.971,185.012l-.941-7.528A3.8,3.8,0,0,1,32,177v-8.255a3.8,3.8,0,0,1,.03-.482l.809-6.467a2.576,2.576,0,0,1,.788-1.687l5.553-7.141A1.689,1.689,0,0,1,40.724,152h0a1.956,1.956,0,0,1,1.956,1.956v.33a1.957,1.957,0,0,1-.364,1.137L38.549,160.7a3.874,3.874,0,0,0-.723,2.256v5.606a3.9,3.9,0,0,0,.41,1.737l1.532,3.063h0l4.252-4.252a2.058,2.058,0,0,1,1.456-.6h0a2.06,2.06,0,0,1,2.059,2.059h0a2.058,2.058,0,0,1-.6,1.456l-7.165,7.165v5.826Z" transform="translate(-28.116 -133.552)" fill="#f9e0a6"/>
      <path id="Path_287" data-name="Path 287" d="M104,44.622h29.128V32H104Zm1.942-10.68h25.245V42.68H105.942Z" transform="translate(-91.378 -28.116)"/>
      <rect id="Rectangle_65" data-name="Rectangle 65" width="19" height="2" transform="translate(18 30)"/>
      <rect id="Rectangle_66" data-name="Rectangle 66" width="5" height="2" transform="translate(20 22)"/>
      <rect id="Rectangle_67" data-name="Rectangle 67" width="5" height="2" transform="translate(29 22)"/>
      <rect id="Rectangle_68" data-name="Rectangle 68" width="5" height="3" transform="translate(20 25)"/>
      <rect id="Rectangle_69" data-name="Rectangle 69" width="5" height="3" transform="translate(29 25)"/>
      <rect id="Rectangle_70" data-name="Rectangle 70" width="17" height="2" transform="translate(25 38)"/>
      <rect id="Rectangle_71" data-name="Rectangle 71" width="6" height="1" transform="translate(36 42)"/>
      <rect id="Rectangle_72" data-name="Rectangle 72" width="7" height="1" transform="translate(25 42)"/>
      <path id="Path_288" data-name="Path 288" d="M386.913,155.884a.972.972,0,0,1,.971.971h1.942a2.909,2.909,0,0,0-1.942-2.734V152h-1.942v2.121a2.906,2.906,0,0,0,.971,5.647.971.971,0,1,1-.971.971H384a2.909,2.909,0,0,0,1.942,2.734v2.121h1.942v-2.121a2.906,2.906,0,0,0-.971-5.647.971.971,0,1,1,0-1.942Z" transform="translate(-337.395 -133.552)"/>
      <rect id="Rectangle_73" data-name="Rectangle 73" width="3" height="1" transform="translate(54 24)"/>
      <rect id="Rectangle_74" data-name="Rectangle 74" width="3" height="1" transform="translate(42 24)"/>
      <path id="Path_289" data-name="Path 289" d="M58.452,31.1A10.666,10.666,0,0,0,46.605,14.978V4.855A4.86,4.86,0,0,0,41.751,0H4.855A4.86,4.86,0,0,0,0,4.855v8.738H7.768v7.234L3.835,25.882a3.588,3.588,0,0,0-1.048,2.243L1.98,34.594a5,5,0,0,0-.038.6v8.255a4.985,4.985,0,0,0,.038.6l.8,6.436H0V60.2H13.593V55.344H49.518a4.86,4.86,0,0,0,4.855-4.855V45.634H46.605V35.511a10.624,10.624,0,0,0,10.476-2.726l-1.375-1.371a8.722,8.722,0,1,1,1.121-1.38ZM1.942,11.651v-6.8a2.913,2.913,0,0,1,5.826,0v6.8ZM3.906,43.813a3.022,3.022,0,0,1-.022-.362V35.2a2.993,2.993,0,0,1,.022-.361l.808-6.467a1.707,1.707,0,0,1,.424-1.044l5.722-7.308.09-.139a.722.722,0,0,1,.686-.457.986.986,0,0,1,.986.986v.33a.983.983,0,0,1-.183.573L8.672,26.582a4.818,4.818,0,0,0-.9,2.821v5.606a4.9,4.9,0,0,0,.512,2.171l.83,1.658H8.738V40.78h2.344l4.536-4.536a1.089,1.089,0,0,1,1.858.77,1.08,1.08,0,0,1-.318.77L9.709,45.232v5.257H4.741Zm7.745,14.444H1.942V52.431h9.709Zm40.78-7.768A2.916,2.916,0,0,1,49.518,53.4H16.5a4.829,4.829,0,0,0,.973-2.913V47.576H52.431ZM38.838,25.245a10.685,10.685,0,0,0,5.826,9.5V45.634H15.535v4.855a2.909,2.909,0,0,1-1.942,2.734V50.489H11.651V46.036l6.88-6.88a3.03,3.03,0,0,0-2.143-5.173,3.051,3.051,0,0,0-2.143.887l-3.3,3.3-.93-1.858a2.934,2.934,0,0,1-.307-1.3V29.4a2.9,2.9,0,0,1,.543-1.693l3.767-5.274a2.907,2.907,0,0,0,.545-1.7V20.4a2.931,2.931,0,0,0-2.927-2.926,2.6,2.6,0,0,0-1.927.829V4.855a4.8,4.8,0,0,0-1-2.913H41.751a2.916,2.916,0,0,1,2.913,2.913V15.743A10.685,10.685,0,0,0,38.838,25.245Z"/>
    </g>
  </g>
</svg>
