<svg xmlns="http://www.w3.org/2000/svg" width="60.039" height="36.162" viewBox="0 0 60.039 36.162">
  <g id="Group_366" data-name="Group 366" transform="translate(-798 -3129)">
    <g id="hands-and-gestures" transform="translate(798 3027.19)">
      <path id="Path_231" data-name="Path 231" d="M159.916,131.77l-1.525-12.389-2.858.352v0l-5.541-3.118a3.339,3.339,0,0,0-1.945-.415l-8.749.809a3.338,3.338,0,0,0-2.579,1.647l-6.166,10.613a1.467,1.467,0,0,0,.75,2.109l.252.1a5.47,5.47,0,0,0,1.482.331l-.781.68-1.563,1.362-4.446,3.792a1.9,1.9,0,0,0-.184,2.68l.451.517a2.441,2.441,0,0,0,3.443.235l1.7,1.949a2.437,2.437,0,0,0,3.443.235l1.7,1.949a2.442,2.442,0,0,0,3.445.237l.922.8a2.442,2.442,0,0,0,3.445.237l1.254-1.094,10.541-8.21.011-.01,4.159,0Z" transform="translate(-110.87 -12.688)" fill="#f29f5c"/>
      <path id="Path_232" data-name="Path 232" d="M155.409,263.692l-.011.01-10.541,8.21-1.254,1.094a2.442,2.442,0,0,1-3.445-.237l-.922-.8a2.442,2.442,0,0,1-3.445-.237l-1.7-1.949a2.437,2.437,0,0,1-3.443-.235l-1.7-1.949a2.441,2.441,0,0,1-3.023.144,1.9,1.9,0,0,0,.15,2.3l.451.517a2.441,2.441,0,0,0,3.443.235l1.7,1.949a2.437,2.437,0,0,0,3.443.235l1.7,1.949a2.442,2.442,0,0,0,3.445.237l.922.8a2.442,2.442,0,0,0,3.445.237l1.254-1.094,10.541-8.21.011-.01,4.159,0-.46-3.738Z" transform="translate(-110.88 -142.414)" fill="#d37d42"/>
      <path id="Path_233" data-name="Path 233" d="M114.178,143.014l-5.648-4.87-1.571-1.353-1.124-.968L101,131.657l.558-4.75a3.278,3.278,0,0,0-2.382-3.542L88.646,120.45a2.438,2.438,0,0,0-2.82,1.238L84.5,124.274l-5.686-.386-1.456,12.4-.633,5.388,5.535.368.011.01,11.562,9.967,1.26,1.087a2.442,2.442,0,0,0,3.444-.256l1.686-1.957a2.442,2.442,0,0,0,3.444-.256l1.686-1.958a2.437,2.437,0,0,0,3.442-.254l1.688-1.958a2.441,2.441,0,0,0,3.442-.254l.448-.519A1.9,1.9,0,0,0,114.178,143.014Z" transform="translate(-67.73 -16.376)" fill="#f9c295"/>
      <g id="Group_183" data-name="Group 183" transform="translate(26.604 125.154)">
        <path id="Path_234" data-name="Path 234" d="M246.716,302.366,245,300.883a2.016,2.016,0,0,1-.083,2.529l-.476.551a2.591,2.591,0,0,1-3.654.27l-1.792,2.079a2.587,2.587,0,0,1-3.654.27l-1.79,2.079a2.592,2.592,0,0,1-3.656.272l-1.79,2.077a2.574,2.574,0,0,1-1.228.792l.762.658a2.442,2.442,0,0,0,3.444-.256l1.686-1.957a2.442,2.442,0,0,0,3.444-.256l1.686-1.958a2.437,2.437,0,0,0,3.442-.254l1.688-1.958a2.441,2.441,0,0,0,3.442-.254l.448-.519A1.9,1.9,0,0,0,246.716,302.366Z" transform="translate(-226.872 -300.883)" fill="#e59f6a"/>
        <path id="Path_235" data-name="Path 235" d="M335.259,315.722l-3.095-2.668a.879.879,0,1,0-1.149,1.332l3.089,2.664.582-.675a2.435,2.435,0,0,0,.765.445A.88.88,0,0,0,335.259,315.722Z" transform="translate(-318.534 -311.438)" fill="#e59f6a"/>
        <path id="Path_236" data-name="Path 236" d="M294.052,337.608a.879.879,0,0,0-.183-1.112l-2.78-2.4a.879.879,0,1,0-1.149,1.332l2.78,2.4,0,0,.574-.667A2.431,2.431,0,0,0,294.052,337.608Z" transform="translate(-282.275 -330.016)" fill="#e59f6a"/>
      </g>
      <g id="Group_184" data-name="Group 184" transform="translate(13.707 103.495)">
        <path id="Path_237" data-name="Path 237" d="M118,298.607l-.67.885a2.188,2.188,0,0,0,.423,3.065h0a2.188,2.188,0,0,0,3.065-.423l.67-.885a2.188,2.188,0,0,0-.423-3.065h0A2.188,2.188,0,0,0,118,298.607Z" transform="translate(-116.887 -276.45)" fill="#f29f5c"/>
        <path id="Path_238" data-name="Path 238" d="M148.343,314.474l-1.262,1.666a2.188,2.188,0,0,0,.423,3.065h0a2.188,2.188,0,0,0,3.065-.423l1.262-1.666a2.188,2.188,0,0,0-.423-3.065h0A2.188,2.188,0,0,0,148.343,314.474Z" transform="translate(-143.148 -290.457)" fill="#f29f5c"/>
        <path id="Path_239" data-name="Path 239" d="M178.549,331.849l-1.719,2.27a2.188,2.188,0,0,0,.423,3.065h0a2.188,2.188,0,0,0,3.065-.423l1.719-2.27a2.188,2.188,0,0,0-.423-3.065h0A2.188,2.188,0,0,0,178.549,331.849Z" transform="translate(-169.409 -305.794)" fill="#f29f5c"/>
        <path id="Path_240" data-name="Path 240" d="M208.4,353.255l-1.819,2.4a2.188,2.188,0,0,0,.423,3.065h0a2.188,2.188,0,0,0,3.065-.423l1.819-2.4a2.188,2.188,0,0,0-.423-3.065h0A2.188,2.188,0,0,0,208.4,353.255Z" transform="translate(-195.67 -324.69)" fill="#f29f5c"/>
        <path id="Path_241" data-name="Path 241" d="M191.354,119.73l-5.541-3.118a3.339,3.339,0,0,0-1.945-.415l-8.749.809a3.338,3.338,0,0,0-2.579,1.647l-6.166,10.613a1.467,1.467,0,0,0,.75,2.109l.252.1a5.483,5.483,0,0,0,6.285-1.788l2.363-3.075s5.679,6.575,11.931-1.1" transform="translate(-160.397 -116.183)" fill="#f29f5c"/>
      </g>
      <path id="Path_242" data-name="Path 242" d="M410.486,126.124l-2.9-23.541a.879.879,0,0,0-.98-.765l-6.776.834a3.22,3.22,0,0,0-2.8,3.585l2.327,18.9a3.214,3.214,0,0,0,3.585,2.8l6.776-.834A.88.88,0,0,0,410.486,126.124Z" transform="translate(-350.454 -0.001)" fill="#5c9cee"/>
      <path id="Path_243" data-name="Path 243" d="M426.4,287.236l-.318-2.584a.919.919,0,0,1-.649.4l-7.1.874a3.367,3.367,0,0,1-3.293-1.6l.237,1.926a3.214,3.214,0,0,0,3.585,2.8l6.776-.834A.88.88,0,0,0,426.4,287.236Z" transform="translate(-366.368 -161.114)" fill="#3580d3"/>
      <path id="Path_244" data-name="Path 244" d="M10.661,102.651l-6.776-.834a.879.879,0,0,0-.98.765l-2.9,23.541a.88.88,0,0,0,.765.98l6.776.834a3.214,3.214,0,0,0,3.585-2.8l2.327-18.9A3.22,3.22,0,0,0,10.661,102.651Z" transform="translate(0)" fill="#ed5575"/>
      <path id="Path_245" data-name="Path 245" d="M.007,287.236l.318-2.584a.919.919,0,0,0,.649.4l7.1.874a3.367,3.367,0,0,0,3.293-1.6l-.237,1.926a3.214,3.214,0,0,1-3.585,2.8l-6.776-.834A.879.879,0,0,1,.007,287.236Z" transform="translate(0 -161.114)" fill="#cc3a60"/>
      <g id="Group_185" data-name="Group 185" transform="translate(3.834 120.653)">
        <circle id="Ellipse_25" data-name="Ellipse 25" cx="1.7" cy="1.7" r="1.7" transform="translate(48.876 0)" fill="#ebeef2"/>
        <circle id="Ellipse_26" data-name="Ellipse 26" cx="1.7" cy="1.7" r="1.7" transform="translate(0 0)" fill="#ebeef2"/>
      </g>
    </g>
  </g>
</svg>
