<svg xmlns="http://www.w3.org/2000/svg" width="55.84" height="64.103" viewBox="0 0 55.84 64.103">
  <g id="Group_365" data-name="Group 365" transform="translate(-975.999 -3115)">
    <g id="multimedia" transform="translate(943 3115)">
      <g id="Group_186" data-name="Group 186" transform="translate(32.999 0)">
        <path id="Path_246" data-name="Path 246" d="M330.86,225.62c-.072.509-.243,1.239-.4,1.831a1.253,1.253,0,0,1-1.213.941H327.5a1.253,1.253,0,0,1-1.213-.941c-.153-.593-.325-1.322-.4-1.831a1.244,1.244,0,0,0-.613-.9l-1.618-.932a1.246,1.246,0,0,0-1.088-.079c-.479.193-1.2.41-1.793.575a1.253,1.253,0,0,1-1.42-.579l-.874-1.511a1.25,1.25,0,0,1,.208-1.52c.438-.429.986-.943,1.393-1.26a1.243,1.243,0,0,0,.476-.981V216.57a1.243,1.243,0,0,0-.476-.981c-.406-.317-.955-.83-1.393-1.26a1.25,1.25,0,0,1-.208-1.52l.874-1.511a1.253,1.253,0,0,1,1.42-.579c.592.164,1.314.382,1.793.575a1.246,1.246,0,0,0,1.088-.079l1.618-.932a1.244,1.244,0,0,0,.613-.9c.072-.509.243-1.239.4-1.831a1.253,1.253,0,0,1,1.213-.941h1.751a1.253,1.253,0,0,1,1.213.941c.153.593.325,1.322.4,1.831a1.244,1.244,0,0,0,.613.9l1.618.932a1.246,1.246,0,0,0,1.088.079c.479-.193,1.2-.41,1.793-.575a1.253,1.253,0,0,1,1.42.579l.874,1.511a1.25,1.25,0,0,1-.208,1.52c-.438.429-.986.943-1.393,1.26a1.243,1.243,0,0,0-.476.981v1.861a1.243,1.243,0,0,0,.476.981c.406.317.955.83,1.393,1.26a1.25,1.25,0,0,1,.208,1.52l-.874,1.511a1.253,1.253,0,0,1-1.42.579c-.592-.164-1.314-.382-1.793-.575a1.246,1.246,0,0,0-1.088.079l-1.618.932A1.244,1.244,0,0,0,330.86,225.62Zm1.825-8.12a4.31,4.31,0,1,0-4.31,4.3A4.305,4.305,0,0,0,332.686,217.5Z" transform="translate(-282.594 -180.741)" fill="#ffc328"/>
        <path id="Path_247" data-name="Path 247" d="M45.543,19.011c-.072.509-.243,1.239-.4,1.831a1.253,1.253,0,0,1-1.213.941H42.183a1.253,1.253,0,0,1-1.213-.941c-.153-.593-.325-1.322-.4-1.831a1.244,1.244,0,0,0-.613-.9l-1.618-.932a1.246,1.246,0,0,0-1.088-.079c-.479.193-1.2.41-1.793.575a1.253,1.253,0,0,1-1.42-.579l-.874-1.511a1.25,1.25,0,0,1,.208-1.52c.438-.429.986-.943,1.393-1.26a1.243,1.243,0,0,0,.476-.981V9.961a1.243,1.243,0,0,0-.476-.981c-.406-.317-.955-.83-1.393-1.26a1.25,1.25,0,0,1-.208-1.52l.874-1.511a1.253,1.253,0,0,1,1.42-.579c.592.164,1.314.382,1.793.575a1.246,1.246,0,0,0,1.088-.079l1.618-.932a1.244,1.244,0,0,0,.613-.9c.072-.509.243-1.239.4-1.831A1.253,1.253,0,0,1,42.183,0h1.751a1.253,1.253,0,0,1,1.213.941c.153.593.325,1.322.4,1.831a1.244,1.244,0,0,0,.613.9l1.618.932a1.246,1.246,0,0,0,1.088.079c.479-.193,1.2-.41,1.793-.575a1.253,1.253,0,0,1,1.42.579L52.949,6.2a1.25,1.25,0,0,1-.208,1.52c-.438.429-.986.943-1.393,1.26a1.243,1.243,0,0,0-.476.981v1.861a1.243,1.243,0,0,0,.476.981c.406.317.955.83,1.393,1.26a1.25,1.25,0,0,1,.208,1.52l-.874,1.511a1.253,1.253,0,0,1-1.42.579c-.592-.164-1.314-.382-1.793-.575a1.246,1.246,0,0,0-1.088.079l-1.618.932A1.246,1.246,0,0,0,45.543,19.011Zm1.825-8.12a4.31,4.31,0,1,0-4.31,4.3A4.305,4.305,0,0,0,47.369,10.892Z" transform="translate(-32.999 0)" fill="#f78e36"/>
      </g>
      <path id="Path_248" data-name="Path 248" d="M149.119,346.923H113.363l2.219-6.671a1.967,1.967,0,0,1,1.876-1.322h27.6a1.967,1.967,0,0,1,1.876,1.322Z" transform="translate(-70.302 -296.495)" fill="#29cef6"/>
      <path id="Path_249" data-name="Path 249" d="M341.056,340.252a1.967,1.967,0,0,0-1.876-1.322h-3.869a1.967,1.967,0,0,1,1.876,1.322l2.186,6.671h3.869Z" transform="translate(-264.462 -296.495)" fill="#22b5ed"/>
      <path id="Path_250" data-name="Path 250" d="M145.069,403.857H114.634a2.837,2.837,0,0,1-2.837-2.837v-9.8a2.837,2.837,0,0,1,2.837-2.837h30.434a2.837,2.837,0,0,1,2.837,2.837v9.8A2.837,2.837,0,0,1,145.069,403.857Z" transform="translate(-68.932 -339.753)" fill="#a9dbf5"/>
      <path id="Path_251" data-name="Path 251" d="M350.511,388.378h-3.869a2.837,2.837,0,0,1,2.837,2.838v9.8a2.837,2.837,0,0,1-2.837,2.838h3.869a2.837,2.837,0,0,0,2.837-2.838v-9.8A2.838,2.838,0,0,0,350.511,388.378Z" transform="translate(-274.374 -339.752)" fill="#88c3e0"/>
      <path id="Path_252" data-name="Path 252" d="M142.7,426.507V419.8a.516.516,0,0,1,.516-.516h27.34a.516.516,0,0,1,.516.516v6.707a.516.516,0,0,1-.516.516H143.213A.516.516,0,0,1,142.7,426.507Z" transform="translate(-95.963 -366.789)" fill="#43809f"/>
      <path id="Path_253" data-name="Path 253" d="M176.556,423.412a1.934,1.934,0,0,1-1.934-1.934v-2.193h3.869v2.193A1.935,1.935,0,0,1,176.556,423.412Z" transform="translate(-123.891 -366.79)" fill="#f78e36"/>
      <path id="Path_254" data-name="Path 254" d="M228.064,423.412a1.934,1.934,0,0,1-1.934-1.934v-2.193H230v2.193A1.935,1.935,0,0,1,228.064,423.412Z" transform="translate(-168.95 -366.79)" fill="#f78e36"/>
      <path id="Path_255" data-name="Path 255" d="M115.22,45.4a7.864,7.864,0,0,0-2.269,6.286l0,.046a6.67,6.67,0,0,1-1.925,5.332l-6.079,6.08L91.875,50.061l6.079-6.08a6.668,6.668,0,0,1,5.331-1.925l.046,0a7.863,7.863,0,0,0,8.552-8.581,6.67,6.67,0,0,1,1.923-5.353l6.09-6.091,13.076,13.078-6.09,6.091a6.668,6.668,0,0,1-5.352,1.923,7.862,7.862,0,0,0-6.31,2.267Z" transform="translate(-51.504 -19.277)" fill="#f3f3f3"/>
      <path id="Path_256" data-name="Path 256" d="M95.52,216.758,91.875,220.4l13.076,13.078,6.079-6.08a6.67,6.67,0,0,0,1.925-5.332l0-.046a7.864,7.864,0,0,1,1.41-5.266H95.52Z" transform="translate(-51.504 -189.62)" fill="#7be492"/>
      <path id="Path_257" data-name="Path 257" d="M193.317,114.928A6.668,6.668,0,0,0,198.669,113l6.09-6.091-2.8-2.8-6.09,6.091a6.668,6.668,0,0,1-5.352,1.923,7.863,7.863,0,0,0-8.579,8.553l0,.046a6.67,6.67,0,0,1-1.925,5.332l-6.079,6.08,2.8,2.8,6.079-6.08a6.671,6.671,0,0,0,1.925-5.332l0-.046a7.863,7.863,0,0,1,8.579-8.553Z" transform="translate(-123.291 -91.076)" fill="#e4e4e4"/>
      <path id="Path_258" data-name="Path 258" d="M182.818,227.4a6.67,6.67,0,0,0,1.925-5.332l0-.046a7.864,7.864,0,0,1,1.41-5.266H182.1a7.859,7.859,0,0,0-.163,2.464l0,.046a6.67,6.67,0,0,1-1.925,5.332l-6.079,6.08,2.8,2.8Z" transform="translate(-123.292 -189.62)" fill="#45d987"/>
      <path id="Path_259" data-name="Path 259" d="M322.934,16.116,310.076,3.256A1.87,1.87,0,0,1,312.72.611l12.858,12.86a1.87,1.87,0,1,1-2.645,2.645Z" transform="translate(-241.907 -0.055)" fill="#f78e36"/>
      <path id="Path_260" data-name="Path 260" d="M400.128,88.033,397.392,85.3a1.87,1.87,0,0,1-2.645,2.645l2.736,2.736a1.87,1.87,0,0,0,2.645-2.645Z" transform="translate(-316.457 -74.618)" fill="#f86f1b"/>
      <path id="Path_261" data-name="Path 261" d="M83.311,255.775l-12.858-12.86a1.87,1.87,0,1,1,2.645-2.645l12.858,12.86a1.87,1.87,0,0,1-2.644,2.645Z" transform="translate(-32.285 -209.709)" fill="#f78e36"/>
      <path id="Path_262" data-name="Path 262" d="M160.505,327.692l-2.736-2.736a1.87,1.87,0,0,1-2.645,2.645l2.736,2.736a1.87,1.87,0,1,0,2.645-2.645Z" transform="translate(-106.835 -284.271)" fill="#f86f1b"/>
    </g>
  </g>
</svg>
