<svg xmlns="http://www.w3.org/2000/svg" width="60.256" height="60.75" viewBox="0 0 60.256 60.75">
  <g id="Group_364" data-name="Group 364" transform="translate(-12 -10)">
    <path id="Path_207" data-name="Path 207" d="M280.5,270.171a1.946,1.946,0,0,0-1.946,1.947v-1.162a1.93,1.93,0,0,0-3.831-.335v-.9a1.846,1.846,0,0,0-3.692,0H271V257.48a2.134,2.134,0,1,0-4.268,0v17.153l-1.405-2.036a5.62,5.62,0,0,0-4.623-2.426.747.747,0,0,0-.746.746.735.735,0,0,0,.065.305l.125.279a25.274,25.274,0,0,1,1.432,4.117l1.573,6.179a4.579,4.579,0,0,0,4.386,3.265H277.87a4.58,4.58,0,0,0,4.58-4.582v-8.361a1.947,1.947,0,0,0-1.946-1.947Z" transform="translate(-217.343 -215.052)" fill="#ffd8b7"/>
    <g id="Group_182" data-name="Group 182" transform="translate(12 10)">
      <path id="Path_208" data-name="Path 208" d="M72.412,167.54H79.5a1.081,1.081,0,0,0,1.08-1.079v-2.4a.741.741,0,0,0-1.482,0v1.995H72.814v-6.276h3.143a.741.741,0,1,0,0-1.482H72.412a1.081,1.081,0,0,0-1.08,1.079v7.081A1.081,1.081,0,0,0,72.412,167.54Z" transform="translate(-64.006 -139.989)" fill="#284268"/>
      <path id="Path_209" data-name="Path 209" d="M102.09,153.716a.741.741,0,0,0-1.043.1l-3.534,4.247-1.134-.918a.741.741,0,1,0-.932,1.152l1.363,1.1a1.174,1.174,0,0,0,1.569-.069l.03-.029,3.776-4.538a.741.741,0,0,0-.1-1.044Z" transform="translate(-84.902 -135.821)" fill="#284268"/>
      <path id="Path_210" data-name="Path 210" d="M231.624,162.482H202.716a.741.741,0,0,0,0,1.482h28.908a.741.741,0,0,0,0-1.482Z" transform="translate(-178.518 -143.654)" fill="#284268"/>
      <path id="Path_211" data-name="Path 211" d="M231.624,212.193H202.716a.741.741,0,0,0,0,1.482h28.908a.741.741,0,0,0,0-1.482Z" transform="translate(-178.518 -187.227)" fill="#284268"/>
      <path id="Path_212" data-name="Path 212" d="M79.841,290.49a.741.741,0,0,0-.741.741v1.995H72.814V286.95h3.143a.741.741,0,1,0,0-1.482H72.412a1.081,1.081,0,0,0-1.08,1.079v7.081a1.081,1.081,0,0,0,1.08,1.079H79.5a1.081,1.081,0,0,0,1.08-1.079v-2.4A.741.741,0,0,0,79.841,290.49Z" transform="translate(-64.006 -251.455)" fill="#284268"/>
      <path id="Path_213" data-name="Path 213" d="M102.091,280.884a.741.741,0,0,0-1.043.1l-3.534,4.247-1.134-.917a.741.741,0,1,0-.932,1.152l1.363,1.1a1.175,1.175,0,0,0,1.569-.069l.03-.029,3.776-4.538A.741.741,0,0,0,102.091,280.884Z" transform="translate(-84.903 -247.286)" fill="#284268"/>
      <path id="Path_214" data-name="Path 214" d="M394.112,289.65h-6.019a.741.741,0,0,0,0,1.482h6.019a.741.741,0,0,0,0-1.482Z" transform="translate(-341.006 -255.12)" fill="#284268"/>
      <path id="Path_215" data-name="Path 215" d="M212.1,289.65h-9.389a.741.741,0,0,0,0,1.482H212.1a.741.741,0,1,0,0-1.482Z" transform="translate(-178.518 -255.12)" fill="#284268"/>
      <path id="Path_216" data-name="Path 216" d="M205.246,339.362h-2.53a.741.741,0,1,0,0,1.482h2.53a.741.741,0,1,0,0-1.482Z" transform="translate(-178.518 -298.694)" fill="#284268"/>
      <path id="Path_217" data-name="Path 217" d="M68.843,10H15.412A3.416,3.416,0,0,0,12,13.412V57.69A3.415,3.415,0,0,0,15.407,61.1l28.256.2,1.431,5.625c0,.01.005.02.008.03a5.287,5.287,0,0,0,5.1,3.794h10.33a5.327,5.327,0,0,0,5.32-5.322V61.267l3.018-.165a3.416,3.416,0,0,0,3.391-3.412V13.412A3.416,3.416,0,0,0,68.843,10ZM15.412,11.482H68.843a1.933,1.933,0,0,1,1.931,1.93v7.5H13.482v-7.5a1.932,1.932,0,0,1,1.931-1.93ZM64.366,65.428a3.844,3.844,0,0,1-3.838,3.84H50.2a3.814,3.814,0,0,1-3.672-2.723l-1.568-6.163a26.26,26.26,0,0,0-1.474-4.235l-.121-.288a4.875,4.875,0,0,1,4.013,2.107l1.274,1.846v2.751a.741.741,0,1,0,1.482,0V42.428a1.394,1.394,0,1,1,2.787,0V55.579a.739.739,0,0,0,.032.214v3.02a.741.741,0,1,0,1.482,0V54.675a1.105,1.105,0,0,1,2.21,0v.84a2.68,2.68,0,0,0-.029.391v2.908a.741.741,0,0,0,.741.741h.029a.741.741,0,0,0,.741-.741V55.647a1.189,1.189,0,0,1,2.35.258v3.676a.741.741,0,0,0,1.482,0V57.066a1.205,1.205,0,1,1,2.41,0Zm4.478-5.807H68.8l-2.956.161V57.066A2.684,2.684,0,0,0,61.716,54.8a2.668,2.668,0,0,0-3.818-1.18,2.575,2.575,0,0,0-3.5-1.268V42.428a2.875,2.875,0,1,0-5.75,0V57.2l-.055-.079a6.356,6.356,0,0,0-5.233-2.747,1.487,1.487,0,0,0-1.357,2.095l.125.279a24.784,24.784,0,0,1,1.133,3.066l-27.852-.2a1.932,1.932,0,0,1-1.93-1.93v-35.3H70.774v35.3a1.933,1.933,0,0,1-1.931,1.93Z" transform="translate(-12 -10)" fill="#284268"/>
      <path id="Path_218" data-name="Path 218" d="M42.04,42.111a2.84,2.84,0,1,0-2.84-2.84,2.84,2.84,0,0,0,2.84,2.84Zm0-4.2a1.358,1.358,0,1,1-1.358,1.358,1.358,1.358,0,0,1,1.358-1.358Z" transform="translate(-35.841 -33.167)" fill="#284268"/>
      <path id="Path_219" data-name="Path 219" d="M102.673,42.111a2.84,2.84,0,1,0-2.84-2.84A2.84,2.84,0,0,0,102.673,42.111Zm0-4.2a1.358,1.358,0,1,1-1.358,1.358A1.358,1.358,0,0,1,102.673,37.914Z" transform="translate(-88.988 -33.167)" fill="#284268"/>
      <path id="Path_220" data-name="Path 220" d="M163.307,42.111a2.84,2.84,0,1,0-2.84-2.84A2.84,2.84,0,0,0,163.307,42.111Zm0-4.2a1.358,1.358,0,1,1-1.358,1.358A1.358,1.358,0,0,1,163.307,37.914Z" transform="translate(-142.135 -33.167)" fill="#284268"/>
      <path id="Path_221" data-name="Path 221" d="M267.741,53.782H291.81a.741.741,0,0,0,0-1.482H267.741a.741.741,0,0,0,0,1.482Z" transform="translate(-235.514 -47.077)" fill="#284268"/>
    </g>
  </g>
</svg>
