<svg xmlns="http://www.w3.org/2000/svg" width="60.435" height="60.435" viewBox="0 0 60.435 60.435">
  <g id="upload" transform="translate(-16 -16)">
    <g id="Group_366" data-name="Group 366">
      <rect id="Rectangle_60" data-name="Rectangle 60" width="52" height="43" rx="21.5" transform="translate(23 32.719)" fill="#f7cc38"/>
      <path id="Path_222" data-name="Path 222" d="M160.29,34.072V72.348a4.029,4.029,0,0,1-4.029,4.029H124.029A4.029,4.029,0,0,1,120,72.348V28.029A4.029,4.029,0,0,1,124.029,24h26.188Z" transform="translate(-90.905 -6.993)" fill="#e9eef2"/>
      <path id="Path_223" data-name="Path 223" d="M74.362,152.348H28.029A4.029,4.029,0,0,1,24,148.319v-40.29A4.029,4.029,0,0,1,28.029,104H40.116a4.029,4.029,0,0,1,4.029,4.029v8.058H66.3a4.029,4.029,0,0,1,4.029,4.029v28.2a4.029,4.029,0,0,0,4.029,4.029" transform="translate(-6.992 -76.92)" fill="#fbe36a"/>
      <path id="Path_224" data-name="Path 224" d="M370.072,34.072h-6.043A4.029,4.029,0,0,1,360,30.043V24Z" transform="translate(-300.688 -6.993)" fill="#c3c6c7"/>
      <path id="Path_225" data-name="Path 225" d="M135.051,264,128,272.058h4.029v12.087h6.043V272.058H142.1Z" transform="translate(-97.898 -216.775)" fill="#f79539"/>
      <path id="Path_226" data-name="Path 226" d="M21.036,76.435H71.4A5.042,5.042,0,0,0,76.435,71.4V37.152A5.042,5.042,0,0,0,71.4,32.116H70.391V27.08a1.007,1.007,0,0,0-.3-.712L60.024,16.295A1.007,1.007,0,0,0,59.312,16H33.123a5.042,5.042,0,0,0-5.036,5.036v5.036H21.036A5.042,5.042,0,0,0,16,31.109V71.4a5.042,5.042,0,0,0,5.036,5.036ZM71.4,34.13a3.025,3.025,0,0,1,3.022,3.022V71.4A3.025,3.025,0,0,1,71.4,74.42H67.369A3.025,3.025,0,0,1,64.348,71.4V70.391h1.007a5.042,5.042,0,0,0,5.036-5.036V34.13ZM60.319,19.439l6.634,6.634H63.341a3.025,3.025,0,0,1-3.022-3.022ZM30.1,21.036a3.025,3.025,0,0,1,3.022-3.022H58.3v5.036a5.042,5.042,0,0,0,5.036,5.036h5.036V65.355a3.025,3.025,0,0,1-3.022,3.022H64.348V43.2a5.042,5.042,0,0,0-5.036-5.036H38.159V31.109a5.042,5.042,0,0,0-5.036-5.036H30.1ZM18.014,31.109a3.025,3.025,0,0,1,3.022-3.022H33.123a3.025,3.025,0,0,1,3.022,3.022v8.058a1.007,1.007,0,0,0,1.007,1.007H59.312A3.025,3.025,0,0,1,62.333,43.2V71.4a5.01,5.01,0,0,0,1.01,3.022H21.036A3.025,3.025,0,0,1,18.014,71.4Z"/>
      <path id="Path_227" data-name="Path 227" d="M272,145.007a1.007,1.007,0,0,0,1.007,1.007h14.1a1.007,1.007,0,0,0,0-2.014h-14.1A1.007,1.007,0,0,0,272,145.007Z" transform="translate(-223.768 -111.884)"/>
      <path id="Path_228" data-name="Path 228" d="M217.007,98.014h7.051a1.007,1.007,0,0,0,0-2.014h-7.051a1.007,1.007,0,1,0,0,2.014Z" transform="translate(-174.818 -69.927)"/>
      <path id="Path_229" data-name="Path 229" d="M227.022,144h-2.014a1.007,1.007,0,1,0,0,2.014h2.014a1.007,1.007,0,1,0,0-2.014Z" transform="translate(-181.812 -111.884)"/>
      <path id="Path_230" data-name="Path 230" d="M121.007,266.072h3.022v11.08a1.007,1.007,0,0,0,1.007,1.007h6.043a1.007,1.007,0,0,0,1.007-1.007v-11.08h3.022a1.007,1.007,0,0,0,.758-1.671l-7.051-8.058a1.007,1.007,0,0,0-1.516,0l-7.051,8.058a1.007,1.007,0,0,0,.758,1.671Zm7.051-7.536,4.831,5.521h-1.809a1.007,1.007,0,0,0-1.007,1.007v11.08h-4.029v-11.08a1.007,1.007,0,0,0-1.007-1.007h-1.809Z" transform="translate(-90.905 -209.782)"/>
    </g>
  </g>
</svg>
